<?xml version="1.0" encoding="UTF-8" standalone="no"?>
<!-- Created with Inkscape (http://www.inkscape.org/) -->

<svg
   xmlns:dc="http://purl.org/dc/elements/1.1/"
   xmlns:cc="http://creativecommons.org/ns#"
   xmlns:rdf="http://www.w3.org/1999/02/22-rdf-syntax-ns#"
   xmlns:svg="http://www.w3.org/2000/svg"
   xmlns="http://www.w3.org/2000/svg"
   xmlns:xlink="http://www.w3.org/1999/xlink"
   xmlns:sodipodi="http://sodipodi.sourceforge.net/DTD/sodipodi-0.dtd"
   xmlns:inkscape="http://www.inkscape.org/namespaces/inkscape"
   width="540.8009"
   height="308.39603"
   id="svg2"
   version="1.1"
   inkscape:version="0.48.3.1 r9886"
   sodipodi:docname="sunmoon.svg">
  <defs
     id="defs4">
    <inkscape:path-effect
       effect="bend_path"
       id="path-effect3906"
       is_visible="true"
       bendpath="m 566.69558,83.316826 89.07199,0"
       prop_scale="1"
       scale_y_rel="false"
       vertical="false" />
    <inkscape:path-effect
       effect="gears"
       id="path-effect3904"
       is_visible="true"
       teeth="10"
       phi="5" />
    <inkscape:path-effect
       effect="rough_hatches"
       id="path-effect3902"
       is_visible="true"
       direction="611.23158,78.316826 , 22.267999,0"
       dist_rdm="15;1"
       growth="0"
       do_bend="true"
       bender="611.23158,83.316826 , 5,0"
       bottom_edge_variation="1;530866795"
       top_edge_variation="1;2147483646"
       bottom_tgt_variation="0;2147483646"
       top_tgt_variation="-0.1;2147483646"
       scale_bf="1"
       scale_bb="1"
       scale_tf="1"
       scale_tb="1"
       top_smth_variation="0.1;1"
       bottom_smth_variation="0;1"
       fat_output="true"
       stroke_width_top="1"
       stroke_width_bottom="1"
       front_thickness="1"
       back_thickness="0.25" />
    <inkscape:path-effect
       effect="bend_path"
       id="path-effect3900"
       is_visible="true"
       bendpath="m 566.69558,83.316826 89.07199,0"
       prop_scale="1"
       scale_y_rel="false"
       vertical="false" />
    <linearGradient
       id="linearGradient3860">
      <stop
         style="stop-color:#ffffff;stop-opacity:1;"
         offset="0"
         id="stop3862" />
      <stop
         style="stop-color:#d1d1d1;stop-opacity:1;"
         offset="1"
         id="stop3864" />
    </linearGradient>
    <linearGradient
       id="linearGradient3775">
      <stop
         style="stop-color:#ffffc1;stop-opacity:1;"
         offset="0"
         id="stop3777" />
      <stop
         id="stop3783"
         offset="0.5"
         style="stop-color:#ffff6e;stop-opacity:1;" />
      <stop
         style="stop-color:#ffff12;stop-opacity:1;"
         offset="1"
         id="stop3779" />
    </linearGradient>
    <radialGradient
       inkscape:collect="always"
       xlink:href="#linearGradient3775"
       id="radialGradient3781"
       cx="125"
       cy="136"
       fx="125"
       fy="136"
       r="131.72589"
       gradientTransform="matrix(1,0,0,0.97218691,0,3.7825803)"
       gradientUnits="userSpaceOnUse" />
    <filter
       inkscape:collect="always"
       id="filter3813"
       x="-0.14091834"
       width="1.2818367"
       y="-0.14796427"
       height="1.2959285"
       color-interpolation-filters="sRGB">
      <feGaussianBlur
         inkscape:collect="always"
         stdDeviation="12.330356"
         id="feGaussianBlur3815" />
    </filter>
    <radialGradient
       inkscape:collect="always"
       xlink:href="#linearGradient3775-3"
       id="radialGradient3781-4"
       cx="125"
       cy="136"
       fx="125"
       fy="136"
       r="131.72589"
       gradientTransform="matrix(1,0,0,0.97218691,0,3.7825803)"
       gradientUnits="userSpaceOnUse" />
    <linearGradient
       id="linearGradient3775-3">
      <stop
         style="stop-color:#ffffc1;stop-opacity:1;"
         offset="0"
         id="stop3777-8" />
      <stop
         id="stop3783-9"
         offset="0.5"
         style="stop-color:#ffff6e;stop-opacity:1;" />
      <stop
         style="stop-color:#ffff12;stop-opacity:1;"
         offset="1"
         id="stop3779-9" />
    </linearGradient>
    <filter
       inkscape:collect="always"
       id="filter4112"
       x="-0.27330962"
       width="1.5466192"
       y="-0.27330962"
       height="1.5466192"
       color-interpolation-filters="sRGB">
      <feGaussianBlur
         inkscape:collect="always"
         stdDeviation="21.266881"
         id="feGaussianBlur4114" />
    </filter>
    <filter
       inkscape:collect="always"
       id="filter4158"
       x="-0.29466191"
       width="1.5893238"
       y="-0.29466191"
       height="1.5893238"
       color-interpolation-filters="sRGB">
      <feGaussianBlur
         inkscape:collect="always"
         stdDeviation="16.593917"
         id="feGaussianBlur4160" />
    </filter>
    <radialGradient
       inkscape:collect="always"
       xlink:href="#linearGradient3860"
       id="radialGradient4162"
       gradientUnits="userSpaceOnUse"
       gradientTransform="matrix(1.6304473,2.7084575,-1.8302046,0.9993226,132.84639,-299.69284)"
       cx="106.92722"
       cy="114.66434"
       fx="106.92722"
       fy="114.66434"
       r="105" />
  </defs>
  <sodipodi:namedview
     id="base"
     pagecolor="#ffffff"
     bordercolor="#666666"
     borderopacity="1.0"
     inkscape:pageopacity="0.0"
     inkscape:pageshadow="2"
     inkscape:zoom="0.16"
     inkscape:cx="-237.24487"
     inkscape:cy="-587.32753"
     inkscape:document-units="px"
     inkscape:current-layer="layer1"
     showgrid="false"
     inkscape:window-width="1366"
     inkscape:window-height="701"
     inkscape:window-x="-7"
     inkscape:window-y="10"
     inkscape:window-maximized="1"
     fit-margin-top="0"
     fit-margin-left="0"
     fit-margin-right="0"
     fit-margin-bottom="0">
    <inkscape:grid
       type="xygrid"
       id="grid2985"
       empspacing="5"
       visible="true"
       enabled="true"
       snapvisiblegridlinesonly="true"
       originx="26.198014px"
       originy="26.198003px" />
  </sodipodi:namedview>
  <metadata
     id="metadata7">
    <rdf:RDF>
      <cc:Work
         rdf:about="">
        <dc:format>image/svg+xml</dc:format>
        <dc:type
           rdf:resource="http://purl.org/dc/dcmitype/StillImage" />
        <dc:title></dc:title>
      </cc:Work>
    </rdf:RDF>
  </metadata>
  <g
     inkscape:label="Layer 1"
     inkscape:groupmode="layer"
     id="layer1"
     transform="translate(26.198014,-770.16416)">
    <g
       id="g4164"
       inkscape:export-filename="/home/paul/src/games/stackedfortress/data/sun.png"
       inkscape:export-xdpi="74.709999"
       inkscape:export-ydpi="74.709999">
      <path
         transform="matrix(1.4356885,0,0,1.4356885,-25.102712,780.59144)"
         d="m 174.21874,100.14062 c 0,37.32237 -30.25575,67.57812 -67.57812,67.57812 -37.32237,0 -67.578128,-30.25575 -67.578128,-67.57812 0,-37.32237 30.255758,-67.578128 67.578128,-67.578128 37.32237,0 67.57812,30.255758 67.57812,67.578128 z"
         sodipodi:ry="67.578125"
         sodipodi:rx="67.578125"
         sodipodi:cy="100.14062"
         sodipodi:cx="106.64062"
         id="path4116"
         style="fill:#f4f49c;fill-opacity:1;fill-rule:nonzero;stroke:none;filter:url(#filter4158)"
         sodipodi:type="arc" />
      <path
         transform="matrix(0.64571928,0,0,0.67800528,49.285084,830.15346)"
         d="M 230,136 C 230,191.22847 182.9899,236 125,236 67.010101,236 20,191.22847 20,136 20,80.771525 67.010101,36 125,36 c 57.9899,0 105,44.771525 105,100 z"
         sodipodi:ry="100"
         sodipodi:rx="105"
         sodipodi:cy="136"
         sodipodi:cx="125"
         id="path2987"
         style="fill:url(#radialGradient3781);fill-opacity:1;fill-rule:nonzero;stroke:none;filter:url(#filter3813)"
         sodipodi:type="arc" />
    </g>
    <g
       id="g4097"
       transform="matrix(1.005853,0,0,1.005853,-2.2261624,-5.424034)"
       inkscape:export-xdpi="85.800003"
       inkscape:export-ydpi="85.800003">
      <path
         transform="matrix(0.92426363,0,0,0.92426363,-135.94413,807.07156)"
         d="m 651.96865,129.4375 c 0,51.56953 -41.80537,93.3749 -93.3749,93.3749 -51.56953,0 -93.3749,-41.80537 -93.3749,-93.3749 0,-51.569534 41.80537,-93.374901 93.3749,-93.374901 51.56953,0 93.3749,41.805367 93.3749,93.374901 z"
         sodipodi:ry="93.374901"
         sodipodi:rx="93.374901"
         sodipodi:cy="129.4375"
         sodipodi:cx="558.59375"
         id="path4091"
         style="opacity:0.90974731;fill:#ffffff;fill-opacity:1;fill-rule:nonzero;stroke:none;filter:url(#filter4112)"
         sodipodi:type="arc" />
      <g
         transform="matrix(0.70170453,0,0,0.70170453,-10.605919,280.48264)"
         id="g4084">
        <path
           transform="matrix(1.047619,0,0,1.1,426.19048,771.33361)"
           d="M 125,36 C 67.010101,36 20,80.771525 20,136 20,191.22847 67.010101,236 125,236 182.9899,236 230,191.22847 230,136 230,80.771525 182.9899,36 125,36 z"
           id="path3932"
           style="fill:#ffffff;fill-opacity:1;fill-rule:nonzero;stroke:none"
           inkscape:original="M 125 36 C 67.010101 36 20 80.771525 20 136 C 20 191.22847 67.010101 236 125 236 C 182.9899 236 230 191.22847 230 136 C 230 80.771525 182.9899 36 125 36 z "
           inkscape:radius="0"
           sodipodi:type="inkscape:offset" />
        <path
           transform="matrix(1.047619,0,0,1.1,426.19048,771.33361)"
           d="M 125,36 C 67.010101,36 20,80.771525 20,136 20,191.22847 67.010101,236 125,236 182.9899,236 230,191.22847 230,136 230,80.771525 182.9899,36 125,36 z"
           id="path3928"
           style="fill:url(#radialGradient4162);fill-opacity:1;fill-rule:nonzero;stroke:none"
           inkscape:original="M 125 36 C 67.010101 36 20 80.771525 20 136 C 20 191.22847 67.010101 236 125 236 C 182.9899 236 230 191.22847 230 136 C 230 80.771525 182.9899 36 125 36 z "
           inkscape:radius="0"
           sodipodi:type="inkscape:offset" />
        <path
           inkscape:connector-curvature="0"
           style="fill:#e1e1e1;fill-opacity:1;fill-rule:nonzero;stroke:none"
           d="m 568.5625,15.15625 c 0.2323,0.92962 0.15625,1.821662 0.15625,3.46875 l 0,1 c 0,0.336718 0.2381,0.761905 0,1 -1.34687,1.34687 -1,-1.66249 -1,1.03125 l 0,2 c 0,0.336717 -0.30117,0.880665 0,1.03125 0.60234,0.301169 1.39766,-0.301169 2,0 0.30116,0.150585 -0.15059,0.69883 0,1 0.60609,1.212183 2.42516,1.819067 3.03125,3.03125 0.95403,1.908052 -2.42349,0.546337 2.03125,2.03125 0.63887,0.212959 1.35782,0 2.03125,0 l 5.03125,0 c 0.67343,0 1.42891,-0.301169 2.03125,0 0.60234,0.30117 -0.30117,1.397662 0,2 0.42592,0.851836 1.69883,1.127742 2,2.03125 0.21296,0.638876 -0.21296,1.392373 0,2.03125 1.051,3.153009 0.68438,-0.34687 2.03125,1 0.50508,0.505076 -0.50507,2.526174 0,3.03125 0.2381,0.238095 0.76191,-0.238095 1,0 0.2381,0.238095 0,0.663283 0,1 0,0.370965 0.0406,3.9906 0,4.03125 -0.23809,0.238095 -0.7619,-0.238096 -1,0 -0.2764,0.2764 0.274,3.514505 0,4.0625 -0.42592,0.851835 -1.60534,1.148164 -2.03125,2 -0.15059,0.301169 0,0.694533 0,1.03125 0,1.017277 0.18621,5.503867 0,6.0625 -0.15059,0.451754 -0.84941,0.548246 -1,1 -0.18102,0.543064 0,3.176004 0,4.03125 0,0.336718 -0.23809,0.793155 0,1.03125 0.2381,0.238095 0.7619,-0.238095 1,0 0.23809,0.238095 -0.2381,0.761905 0,1 0.23809,0.238096 0.79315,-0.238095 1.03125,0 0.47619,0.476191 -0.30117,1.428911 0,2.03125 0.21296,0.425917 -6.21296,-0.425916 -6,0 0.15059,0.301169 6.76191,1.761904 7,2 0.2381,0.238095 0.76191,-0.238096 1,0 0.2381,0.238095 0.2381,0.793155 0,1.03125 -0.23809,0.238095 -9.7619,1.761905 -10,2 -0.23809,0.238095 8.69883,-1.150585 9,-1 0.60234,0.301169 1.39237,-0.212959 2.03125,0 0.45175,0.150584 0.57408,0.787041 1,1 0.30117,0.150585 0.68056,-0.106479 1,0 0.71429,0.238096 1.3008,0.848639 2.03125,1.03125 0.0338,0.0084 3.02589,-0.0054 3.03125,0 0.2381,0.238095 -0.23809,0.761905 0,1 0.2381,0.238096 0.7619,-0.238095 1,0 0.23809,0.238096 0,0.663282 0,1 0,0.45493 0.15371,2.723826 0,3.03125 -0.21296,0.425917 -0.78704,0.574082 -1,1 -0.15058,0.301169 0.15059,0.73008 0,1.03125 -0.21295,0.425917 -0.78704,0.574082 -1,1 -0.15058,0.30117 0.2381,0.761905 0,1 -0.23809,0.238095 -0.73008,-0.150585 -1.03125,0 -0.42592,0.212959 5.42591,4.818291 5,5.03125 -0.80813,0.404061 -8.22313,-4.404061 -9.03125,-4 -0.42592,0.212959 -0.54825,0.849415 -1,1 -0.731,0.243665 -3.72952,-0.332985 -4.0625,0 -0.2381,0.238095 0.15058,0.698831 0,1 -0.21296,0.425918 -0.78704,0.605332 -1,1.03125 -0.15058,0.301169 0.15059,0.698831 0,1 -0.21296,0.425918 -0.66328,0.663283 -1,1 -0.33672,0.336718 -0.60533,0.818291 -1.03125,1.03125 -0.30117,0.150584 -0.76191,-0.238096 -1,0 -0.2381,0.238095 0.15058,0.698831 0,1 -0.21296,0.425918 -0.66328,0.663282 -1,1 -0.33671,0.336717 -0.60533,0.818291 -1.03125,1.03125 -0.30117,0.150585 -0.76191,-0.238095 -1,0 -0.2381,0.238095 0.0786,0.672586 0,1 -1.40173,5.83824 0.53378,-2.282518 -4.03125,0 -0.26584,0.13292 -0.16804,0.55312 -0.0312,0.96875 -0.0533,0.02868 -0.19991,0.82009 -0.0312,1 0.0393,-0.304247 0.0625,-0.632032 0.0625,-0.96875 0.17137,0.513606 0.36715,1.03125 0,1.03125 -0.0259,0 -0.0441,-0.01669 -0.0625,-0.03125 -0.28186,2.112527 -1.375,3.560882 -1.375,5.90625 0,0.33671 1.4375,1.85078 1.4375,2.1875 1.23035,1.23035 0.48413,2.25768 2.03125,3.03125 0.30117,0.15058 0.66328,0 1,0 2.28217,0 -0.0135,-4.90176 3.46875,-6.0625 0.39308,-0.13102 2.43699,5.21927 2.59375,5.0625 0.2381,-0.23809 -0.15058,-0.69883 0,-1 0.1341,-0.26821 1.38804,-5.20964 1.65625,-5.34375 0.30117,-0.15058 2.13691,2.5506 2.375,2.3125 0.5324,-0.53239 0.46761,-1.49885 1,-2.03125 0.47619,-0.476192 1.55506,0.47619 2.03125,0 0.47619,-0.476192 -0.47619,-1.55506 0,-2.03125 0.47619,-0.476191 1.42892,0.301169 2.03125,0 0.42592,-0.212959 0.57408,-0.787041 1,-1 1.79582,-0.897913 0.55104,0.551043 1,1 0.47619,0.47619 1.42892,-0.301169 2.03125,0 0.85184,0.425918 -3.07059,4.23033 -2.21875,4.65625 0.30117,0.15058 5.01191,-2.8631 5.25,-2.625 0.24308,0.24307 -3.30557,3.22567 -3.0625,3.46875 2.09004,2.09004 2.99174,-2.61026 5.09375,1.59375 0.15058,0.30117 -0.30117,0.84942 0,1 0.60234,0.30117 1.36113,-0.21296 2,0 0.45176,0.15059 0.63504,0.73585 1.03125,1 0.62647,0.41764 4.37353,-2.3864 5,-1.96875 0.39621,0.26414 -2.30547,3.66328 -1.96875,4 0.33672,0.33672 0.78705,0.57409 1,1 0.20026,0.40052 -0.20651,2.82474 0,3.03125 0.2381,0.2381 0.7619,-0.23809 1,0 0.0792,0.0791 0.0636,0.5082 0.0312,1 0.25242,-0.16441 0.77335,0.2579 1,0.0312 0.2381,-0.23809 -0.2381,-0.79315 0,-1.03125 0.2381,-0.23809 0.66328,0 1,0 1.68359,0 2.12891,-4.75 3.8125,-4.75 4.04061,0 -0.44374,5.09687 2.25,3.75 0.60234,-0.30117 1.36113,0.21296 2,0 0.45176,-0.15059 0.60533,-0.78705 1.03125,-1 0.76901,1.13706 5.93104,6.26427 6.0625,0 0.85184,-0.42592 1.14816,-1.60533 2,-2.03125 0.30117,-0.15058 0.0432,-1.2619 0.28125,-1.5 0.47619,-0.47619 0.27381,-0.055 0.75,-0.53125 0.23809,-0.2381 0.76191,0.23809 1,0 0.47619,-0.47619 -0.47619,-1.52381 0,-2 0.2381,-0.23809 0.84942,-0.30117 1,0 0.30117,0.60234 -0.16333,1.34667 0,2 -2.28162,3.32147 1.80764,1.58404 2.03125,2.03125 0.30117,0.60234 0,1.35781 0,2.03125 l 0,6.03125 0,5.0625 0,1 c 0,0.33671 -0.15059,0.73008 0,1.03125 2.102,4.20401 -0.0588,-1.09004 2.03125,1 0.2381,0.2381 0,0.66329 0,1 0,0.67344 -0.30117,1.42891 0,2.03125 0.15059,0.30117 0.66328,0 1,0 0.33671,0.67343 0.7619,1.31697 1,2.03125 0.21296,0.63888 -0.30117,1.39766 0,2 0.21296,0.42592 0.81829,0.60533 1.03125,1.03125 0.30117,0.60234 -0.30117,1.39766 0,2 2.10201,4.20401 -0.09,-1.05879 2,1.03125 0.23809,0.23809 -0.2381,0.76191 0,1 0.23809,0.2381 0.69453,0 1.03125,0 l 1,0 c 0.91052,0 4.42671,0.21193 5.0625,0 0.71429,-0.23809 1.28571,-0.76191 2,-1 0.31944,-0.10648 0.79316,0.23809 1.03125,0 0.10102,-0.10102 0.10102,-2.93023 0,-3.03125 -2.09004,-2.09004 0.0707,3.17276 -2.03125,-1.03125 -0.15059,-0.30117 0,-0.66329 0,-1 -0.33672,0 -0.84941,0.30117 -1,0 -1.01015,-2.02031 0.50508,-1.51602 0,-3.03125 -0.23809,-0.71429 -0.6136,-1.40478 -1.03125,-2.03125 -0.26414,-0.39621 -0.84942,-0.54824 -1,-1 0,-4.5985 0.48634,-0.0586 -1,-3.03125 -0.15059,-0.30117 0.23809,-0.7619 0,-1 -0.2381,-0.23809 -0.79315,0.2381 -1.03125,0 -2.09004,-2.09004 3.20401,0.0708 -1,-2.03125 -0.30117,-0.15059 -0.76191,0.23809 -1,0 -0.47619,-0.47619 0.47619,-1.55506 0,-2.03125 -0.2381,-0.23809 -0.79316,0.2381 -1.03125,0 -3.94236,-3.94236 0.24398,-0.51204 -1,-3 -0.21296,-0.42591 -0.78704,-0.60533 -1,-1.03125 -0.15058,-0.30117 0.15059,-0.69883 0,-1 -0.21296,-0.42592 -0.69453,-0.66329 -1.03125,-1 -0.33672,-0.33672 -0.57409,-0.81829 -1,-1.03125 -0.30117,-0.15058 -0.7619,0.2381 -1,0 -0.23809,-0.23809 0.2381,-0.7619 0,-1 -0.23809,-0.23809 -0.79315,0.2381 -1.03125,0 -0.23809,-0.23809 0,-0.66328 0,-1 0,-0.33672 -0.15058,-0.73008 0,-1.03125 0.21296,-0.42592 0.81829,-0.57408 1.03125,-1 0.40406,-0.80812 -0.40406,-2.22313 0,-3.03125 2.10201,-4.204017 -0.09,1.09004 2,-1 0.23809,-0.23809 -0.2381,-0.79315 0,-1.03125 0.23809,-0.23809 0.79316,0.2381 1.03125,0 0.2381,-0.23809 -0.23809,-0.76191 0,-1 0.2381,-0.2381 0.68057,0.10648 1,0 0.71429,-0.2381 1.49885,-0.467602 2.03125,-1 0.23809,-0.238095 -0.2381,-0.793155 0,-1.03125 0.23809,-0.238095 0.76191,0.238095 1,0 2.09004,-2.090042 -3.20401,0.102005 1,-2 0.60234,-0.301169 1.55506,0.47619 2.03125,0 0.23809,-0.238095 -0.2381,-0.793154 0,-1.03125 0.23809,-0.238095 0.76191,0.238096 1,0 0.2381,-0.238095 -0.23809,-0.761905 0,-1 0.2381,-0.238095 0.79316,0.238095 1.03125,0 0.2381,-0.238095 -0.23809,-0.761905 0,-1 0.2381,-0.238095 0.69883,0.150585 1,0 4.20401,-2.102006 -1.09004,0.0588 1,-2.03125 0.23809,-0.238095 0.73008,0.150585 1.03125,0 0.42592,-0.212959 0.66329,-0.663283 1,-1 l 1,-1.03125 c 0.33671,0 0.79315,0.238095 1.03125,0 0.47619,-0.47619 -0.47619,-1.52381 0,-2 0.23809,-0.238095 0.76191,0.238095 1,0 0.2381,-0.238095 0.2381,-0.793154 0,-1.03125 -0.23809,-0.238095 -0.76191,0.238096 -1,0 -0.47619,-0.47619 0.47619,-1.523809 0,-2 -0.20651,-0.206512 -2.63073,0.200259 -3.03125,0 -0.42592,-0.212959 -0.60533,-0.818291 -1.03125,-1.03125 -0.60234,-0.30117 -1.52381,0.47619 -2,0 -0.23809,-0.238095 0.2381,-0.761905 0,-1 -0.23809,-0.238095 -0.69453,0 -1.03125,0 -0.33672,0 -0.76191,-0.238095 -1,0 -0.2381,0.238095 0.18678,0.719834 0,1 -0.52829,0.792429 -1.45982,1.269345 -2.03125,2.03125 -0.45175,0.602338 -0.58235,1.40478 -1,2.03125 -0.26414,0.396214 -0.78704,0.574083 -1,1 -0.15059,0.30117 0.23809,0.761905 0,1 -0.2381,0.238095 -0.73008,-0.150585 -1.03125,0 -0.42592,0.212959 -0.57408,0.818291 -1,1.03125 -0.30117,0.150584 -0.66328,0 -1,0 l -1.03125,0 -5.03125,0 c -0.33672,0 -0.73008,0.150584 -1.03125,0 -2.2335,-1.116752 -0.30332,-0.637888 -1,-2.03125 -0.21296,-0.425917 -0.78704,-0.574082 -1,-1 -0.40406,-0.808122 0.40406,-2.223128 0,-3.03125 -0.20966,-0.419308 -2.67865,0.352601 -3.03125,0 -0.23809,-0.238095 0.2381,-0.793155 0,-1.03125 -0.47619,-0.476191 -1.42892,0.301169 -2.03125,0 -0.85184,-0.425918 -1.17941,-1.574083 -2.03125,-2 -0.60234,-0.30117 -1.52381,0.47619 -2,0 -0.2381,-0.238096 0.23809,-0.793155 0,-1.03125 -0.2381,-0.238095 -0.79315,0.238095 -1.03125,0 -0.23809,-0.238095 0,-0.663283 0,-1 0,-0.336718 -0.23809,-0.761905 0,-1 0.2381,-0.238095 0.79315,0.238095 1.03125,0 0.23809,-0.238095 -0.2381,-0.793154 0,-1.03125 0.23809,-0.238095 0.7619,0.238096 1,0 0.23809,-0.238095 -0.2381,-0.761905 0,-1 0.2764,-0.2764 3.48325,0.273998 4.03125,0 1.54046,-0.77023 1.03125,-2.645199 1.03125,-4.03125 l 0,-1 c 2.10201,0 0.3963,-1.427551 1,-2.03125 0.26759,-0.267583 4.21295,0.606479 1,-1 -0.30117,-0.150585 -0.68056,0.106479 -1,0 -0.71428,-0.238096 -1.35782,-0.694532 -2.03125,-1.03125 -0.67344,-0.336717 -1.37353,-0.582353 -2,-1 -0.39621,-0.264142 -0.5795,-0.849415 -1.03125,-1 -0.63888,-0.212959 -1.34668,0.163332 -2,0 -4.87798,-1.219493 0.0493,-0.490989 -3.03125,-2.03125 -0.0861,-0.04306 -3.94514,-0.04306 -4.03125,0 -1.21219,0.606091 -1.81907,2.425159 -3.03125,3.03125 -0.30117,0.150585 -0.73008,-0.150584 -1.03125,0 -0.42592,0.212959 -0.57408,0.787041 -1,1 -0.30116,0.150585 -0.7619,-0.238095 -1,0 -0.23809,0.238095 0.2381,0.793154 0,1.03125 -0.23809,0.238095 -0.79316,-0.238096 -1.03125,0 -0.2381,0.238095 0.23809,0.761905 0,1 -0.10102,0.101015 -2.93023,0.101015 -3.03125,0 -0.47619,-0.47619 0.47619,-1.55506 0,-2.03125 -0.47619,-0.47619 -1.36113,0.212959 -2,0 -0.71429,-0.238095 -1.49885,-0.467602 -2.03125,-1 -0.10101,-0.101015 -0.10101,-2.930235 0,-3.03125 0.2381,-0.238095 0.76191,0.238095 1,0 0.2381,-0.238095 0,-0.663282 0,-1 0,-0.97705 0.1498,-5.762903 0,-6.0625 -0.21295,-0.425918 -0.78704,-0.605332 -1,-1.03125 -0.15058,-0.301169 0,-0.663283 0,-1 0,-0.673435 0.21296,-1.392374 0,-2.03125 -0.15058,-0.451754 -0.78704,-0.574082 -1,-1 -0.15356,-0.307122 0,-3.333717 0,-4.03125 l 0,-1.03125 c 0,-0.336718 -0.2381,-0.761905 0,-1 0.23809,-0.238095 0.76191,0.238095 1,0 0.47619,-0.47619 -0.47619,-1.55506 0,-2.03125 0.2381,-0.238095 0.69884,0.150585 1,0 0.85184,-0.425918 1.17941,-1.574082 2.03125,-2 0.60234,-0.301169 1.55506,0.47619 2.03125,0 0.2381,-0.238095 0,-0.694532 0,-1.03125 l 0,-1 0,-1 0,-1 0,-1.03125 c 0,-0.336717 0.2381,-0.761905 0,-1 -0.23809,-0.238096 -0.73008,0.150584 -1.03125,0 -0.42592,-0.212959 -0.57408,-0.787041 -1,-1 -0.30117,-0.150585 -0.69883,0.150585 -1,0 -0.42592,-0.212959 -0.60533,-0.818291 -1.03125,-1.03125 -0.30116,-0.150584 -0.7619,0.238096 -1,0 -0.23809,-0.238095 0.2381,-0.761905 0,-1 -0.20651,-0.206512 -2.63073,0.200259 -3.03125,0 -0.42591,-0.212959 -0.57408,-0.787041 -1,-1 -0.60234,-0.301169 -1.55506,0.476191 -2.03125,0 -0.2381,-0.238095 0.23809,-0.793155 0,-1.03125 -0.31279,-0.312791 -4.74971,0.312791 -5.0625,0 -0.23809,-0.238095 0.2381,-0.761904 0,-1 -0.23809,-0.238095 -0.66328,0 -1,0 -0.33672,0 -0.76191,-0.238095 -1,0 -0.2381,0.238096 0.23809,0.761905 0,1 -0.2381,0.238095 -0.69454,0 -1.03125,0 -0.33672,0 -0.69883,0.150584 -1,0 -0.42591,-0.212959 -0.57408,-0.787041 -1,-1 -0.60234,-0.301169 -1.55506,0.476191 -2.03125,0 -0.2381,-0.238095 0.15058,-0.698831 0,-1 -0.21296,-0.425918 -0.78704,-0.605332 -1,-1.03125 -0.30117,-0.602338 0.47619,-1.523809 0,-2 -0.23809,-0.238095 -0.79315,0.238095 -1.03125,0 -0.47619,-0.47619 0.30117,-1.428911 0,-2.03125 -0.21296,-0.425918 -0.78704,-0.574082 -1,-1 -0.15059,-0.301169 0.15058,-0.730081 0,-1.03125 -2.10201,-4.204013 0.09,1.090042 -2,-1 -0.23809,-0.238095 0.2381,-0.761905 0,-1 -0.53239,-0.532397 -1.35782,-0.694532 -2.03125,-1.03125 -0.67344,-0.336717 -1.3008,-0.81739 -2.03125,-1 -0.65332,-0.163332 -1.48265,0.431122 -2,0 -0.48251,-0.402089 -0.90945,-0.859782 -1.3125,-1.34375 -0.28944,-0.03222 -0.58488,-0.06378 -0.875,-0.09375 z m 41.59375,99.40625 c -0.0127,0.008 -0.0198,0.0198 -0.0312,0.0312 -0.20485,0.20485 -0.0765,0.53532 -0.0312,0.84375 0.0199,-0.30165 0.0434,-0.58484 0.0625,-0.875 z m -0.0625,0.875 c -0.0343,0.52098 -0.047,0.99982 0.0312,1.15625 l 0,-1 c 0,-0.047 -0.0239,-0.10619 -0.0312,-0.15625 z m 0.0312,1.15625 0,5.0625 c 0,0.33672 -0.2381,0.76191 0,1 0.47619,0.47619 1.55506,-0.47619 2.03125,0 0.47619,0.47619 -0.47619,1.55506 0,2.03125 0.2381,0.23809 0.7619,-0.2381 1,0 2.09004,2.09 -3.17277,-0.102 1.03125,2 0.30117,0.15059 0.84942,-0.30117 1,0 0.65709,1.31419 -0.95098,2.38093 1,3.03125 0.31944,0.10648 0.68589,0.0532 1.03125,0 0,-0.7951 1.5811,-3.95015 1.5,-4.03125 -0.2381,-0.2381 -2.29315,-0.76191 -2.53125,-1 -0.23809,-0.2381 0.2381,-0.79316 0,-1.03125 -0.47619,-0.47619 -1.52381,0.47619 -2,0 -0.5324,-0.5324 -0.61361,-1.37353 -1.03125,-2 -0.52829,-0.79243 -1.57408,-1.17942 -2,-2.03125 -0.30117,-0.60234 0.30117,-1.42891 0,-2.03125 -0.21296,-0.42592 -0.81829,-0.57408 -1.03125,-1 z m 7.09375,13.125 c 0,1.01015 -0.19811,2.04071 0,3.03125 0.14766,0.7383 0.7619,1.31697 1,2.03125 0.12453,0.37361 0.13065,5.8012 0,6.0625 -2.10201,4.20401 0.0588,-1.09004 -2.03125,1 -0.23809,0.2381 0.2381,0.79316 0,1.03125 -0.50507,0.50508 -2.52618,-0.50507 -3.03125,0 -0.2381,0.2381 0.23809,0.7619 0,1 -0.0325,0.0325 -2.78626,0 -3.03125,0 l -1,0 c -0.33671,0 -0.7619,-0.2381 -1,0 -0.23809,0.23809 0.15059,0.69883 0,1 -0.50383,1.00766 -3.09677,2.78981 -4.0625,3.03125 -0.1829,0.0457 -4.96836,-0.0629 -5.03125,0 -0.2381,0.23809 0,0.69453 0,1.03125 0,0.33672 -0.2381,0.76191 0,1 0.23809,0.2381 0.76191,-0.23809 1,0 0.50508,0.50508 -0.50507,2.52617 0,3.03125 0.2381,0.2381 0.69884,-0.15058 1,0 0.42592,0.21296 0.60533,0.78704 1.03125,1 0.54799,0.274 3.75485,-0.2764 4.03125,0 0.23809,0.2381 -0.2381,0.79315 0,1.03125 0.23809,0.23809 0.66328,0 1,0 l 1.03125,0 7.0625,0 c 0.33672,0 0.76191,0.23809 1,0 0.2381,-0.2381 -0.23809,-0.79315 0,-1.03125 0.2381,-0.23809 0.79315,0.2381 1.03125,0 0.23809,-0.23809 -0.2381,-0.7619 0,-1 0.23809,-0.23809 0.7619,0.2381 1,0 0.23809,-0.23809 -0.15059,-0.69883 0,-1 0.42592,-0.85184 1.57409,-1.17941 2,-2.03125 0.30117,-0.60234 -0.30117,-1.42891 0,-2.03125 0.21296,-0.42592 0.81829,-0.57409 1.03125,-1 0.30116,-0.60234 -0.4762,-1.55506 0,-2.03125 2.09004,-2.09004 -0.102,3.20401 2,-1 0.15059,-0.30117 -0.23809,-0.7619 0,-1 0.2381,-0.23809 0.79316,0.2381 1.03125,0 1.23035,-1.23034 0.45287,-2.25769 2,-3.03125 0.30117,-0.15059 0.71181,0.10648 1.03125,0 0.71429,-0.2381 1.28571,-0.79315 2,-1.03125 0.31943,-0.10647 1.03125,0.33672 1.03125,0 0,-0.32571 -1.75061,-1.43872 -2.03125,-2 -0.30117,-0.60234 0.47619,-1.55505 0,-2.03125 -0.53239,-0.53239 -1.40478,-0.58235 -2.03125,-1 -0.79243,-0.52828 -1.14816,-1.60534 -2,-2.03125 -0.30117,-0.15059 -0.70459,0.0817 -1.03125,0 -1.033,-0.25825 -1.99824,-0.74175 -3.03125,-1 -0.32666,-0.0817 -0.69883,0.15059 -1,0 -0.42592,-0.21295 -0.54825,-0.88066 -1,-1.03125 -0.31944,-0.10648 -0.65464,-0.0532 -1,0 z m -42.4375,-25.25 c -0.2381,-0.2381 -0.33672,1.03125 0,1.03125 0.33672,0 0,-0.69453 0,-1.03125 z M 545.4375,15.1875 c -10.97254,1.161568 -21.48184,3.947346 -31.25,8.09375 0.0393,0.145128 0.0612,0.282563 -0.0312,0.375 -0.16597,0.165966 -0.46867,-0.01819 -0.71875,-0.0625 -0.12893,0.05587 -0.24632,0.131149 -0.375,0.1875 -1.75094,1.875756 3.20978,-0.151765 -0.90625,1.90625 -0.30117,0.150584 -0.79316,-0.238096 -1.03125,0 -0.2381,0.238095 0.15058,0.698831 0,1 -0.21296,0.425918 -0.78705,0.605332 -1,1.03125 -0.15059,0.301169 0,0.663283 0,1 0,0.336718 -0.2381,0.761905 0,1 0.23809,0.238095 0.7619,-0.238095 1,0 0.47619,0.47619 -0.47619,1.555059 0,2.03125 0.23809,0.238095 0.69453,0 1.03125,0 1.27975,0 1.85441,0.02255 2.0625,0.03125 -0.2757,-0.05414 -0.99059,-0.291416 1.96875,-1.03125 1.32816,-0.33204 3.80795,0.418186 5.0625,0 0.45176,-0.150584 0.57408,-0.818291 1,-1.03125 0.30117,-0.150585 0.69883,0.150584 1,0 0.42592,-0.212959 0.60533,-0.787041 1.03125,-1 0.30117,-0.150584 0.66329,0 1,0 l 1,0 7.09375,0 c 0.66378,0 2.46133,0.189976 3.03125,0 0.71429,-0.238095 1.26955,-0.81739 2,-1 0.65332,-0.163332 1.39238,0.212959 2.03125,0 2.19521,-0.731738 1.32271,-0.991082 0.6875,-1.0625 0.33518,0.02 0.88285,0.03125 2.34375,0.03125 0.6037,0 2,-0.216998 2,1.03125 0,0.47619 -0.73586,0.603786 -1,1 -0.41764,0.62647 -0.58235,1.40478 -1,2.03125 -0.26414,0.396215 -0.69454,0.663282 -1.03125,1 -0.33672,0.336717 -0.57408,0.787042 -1,1 -0.30116,0.150585 -0.69883,-0.150584 -1,0 -0.42592,0.212959 -0.60533,0.818291 -1.03125,1.03125 -0.11559,0.05779 -2.81156,0.04711 -3,0 -1.033,-0.258251 -1.99824,-0.772999 -3.03125,-1.03125 -0.87804,-0.219512 -3.06367,0 -4.0625,0 -0.8132,0 -3.39722,-0.211341 -4.03125,0 -0.71428,0.238096 -1.31697,0.793155 -2.03125,1.03125 -0.31944,0.106479 -0.69883,-0.150585 -1,0 -0.42592,0.212959 -0.66328,0.663282 -1,1 -0.33671,0.336717 -0.81829,0.574082 -1.03125,1 -0.15058,0.301169 0.15059,0.73008 0,1.03125 -0.21296,0.425917 -1,0.52381 -1,1 0,1.523889 0.52027,2.979985 0.875,4.46875 0.20611,0.146517 0.27299,0.340522 0.125,0.5625 -5.38748,8.08122 -4.47085,0.470847 -8.0625,4.0625 -2.84432,0.06271 -0.27833,2.278326 -1.03125,3.03125 -0.0406,0.04065 -3.66029,0 -4.03125,0 -0.84589,0 -4.29432,0.192046 -5.0625,0 -0.73045,-0.182611 -1.28571,-0.793155 -2,-1.03125 -1.0734,-0.3578 -2.95785,0.3578 -4.03125,0 -0.45175,-0.150584 -0.63504,-0.735857 -1.03125,-1 -0.62647,-0.417647 -1.37353,-0.582353 -2,-1 -0.39621,-0.264143 -0.60533,-0.818292 -1.03125,-1.03125 -0.30117,-0.150585 -0.76191,0.238095 -1,0 -0.2381,-0.238096 0.23809,-0.761905 0,-1 -0.47619,-0.47619 -1.42891,0.301169 -2.03125,0 -2.2335,-1.116751 -0.30332,-0.637889 -1,-2.03125 -0.21296,-0.425918 -0.78704,-0.574082 -1,-1 -0.15059,-0.301169 0.23809,-0.761905 0,-1 -0.2381,-0.238095 -0.69453,0 -1.03125,0 l -0.0625,0 c -6.02449,5.137381 -11.48403,10.908735 -16.28125,17.21875 0.47315,0.09461 0.91822,0.206781 1.1875,-0.0625 0.23809,-0.238095 -0.2381,-0.761905 0,-1 0.23809,-0.238096 0.73008,0.150584 1.03125,0 0.85183,-0.425918 1.20757,-1.502964 2,-2.03125 0.62647,-0.417646 1.40478,-0.582353 2.03125,-1 2.00117,0.100835 0.4676,-1.498853 1,-2.03125 0.2381,-0.238095 0.79316,0.238095 1.03125,0 0.47619,-0.476191 -0.30117,-1.397662 0,-2 0.21296,-0.425918 0.66328,-0.694532 1,-1.03125 0.33671,-0.336717 0.57408,-0.787041 1,-1 0.30742,-0.153712 2.57632,0 3.03125,0 0.16836,0 0.38181,-0.06399 0.5625,-0.09375 0.18069,-0.02976 0.3497,-0.0253 0.46875,0.09375 0.23809,0.238095 -0.2381,0.761905 0,1 0.47619,0.476191 1.39767,-0.301169 2,0 0.89534,0.447668 2.11169,2.418212 3.03125,3.03125 0.62647,0.417647 1.31696,0.793155 2.03125,1.03125 0.31944,0.10648 0.7619,-0.238095 1,0 0.23809,0.238096 -0.2381,0.761905 0,1 0.23809,0.238095 0.79316,-0.238095 1.03125,0 0.47619,0.47619 -0.47619,1.55506 0,2.03125 -0.45175,-0.150585 -0.60533,-0.818291 -1.03125,-1.03125 -0.0529,-0.02642 -2.9784,-0.02642 -3.03125,0 -2.13421,-0.263117 -0.37353,1.613603 -1,2.03125 -0.88596,0.590641 -2.04261,0.604545 -3.03125,1 -0.69907,0.279629 -1.31697,0.793154 -2.03125,1.03125 -0.31944,0.106479 -0.71983,-0.186778 -1,0 -2.62152,1.747681 -1.54078,1.795534 -3.03125,4.03125 -0.26415,0.396214 -0.66328,0.663283 -1,1 -0.33671,0.336718 -0.60533,0.818291 -1.03125,1.03125 -0.30117,0.150585 -0.69883,-0.150585 -1,0 -1.85971,0.929853 -0.17154,2.101397 -2.03125,3.03125 -0.30117,0.150584 -0.69883,-0.150585 -1,0 -0.42592,0.212958 -0.57408,0.787041 -1,1 -0.30117,0.150585 -0.73008,-0.150585 -1.03125,0 -0.42592,0.212959 -0.57408,0.787041 -1,1 -0.60234,0.301169 -1.55506,-0.476191 -2.03125,0 -0.2381,0.238095 0.23809,0.793155 0,1.03125 -0.2381,0.238095 -0.76191,0.238095 -1,0 -0.2381,-0.238095 0,-0.694533 0,-1.03125 l 0,-1 0,-7.0625 c 0,-0.04207 7e-5,-0.02252 0,-0.0625 -1.40576,2.028377 -2.76155,4.094417 -4.03125,6.21875 l 0,3.9375 0,1 c 0,0.336718 0.15058,0.730081 0,1.03125 -2.10201,4.204013 0.0588,-1.090041 -2.03125,1 -0.23809,0.238096 0.2381,0.761905 0,1 -0.47619,0.47619 -1.55506,-0.476191 -2.03125,0 -0.2381,0.238095 0.23809,0.761905 0,1 -0.16597,0.165967 -0.46867,-0.01819 -0.71875,-0.0625 -0.094,0.196411 -0.18836,0.396696 -0.28125,0.59375 0.003,0.0105 -0.003,0.02076 0,0.03125 0.0559,0.187581 0.11275,0.356005 0,0.46875 -0.0595,0.05952 -0.15685,0.07487 -0.25,0.0625 -0.59989,1.291225 -1.19933,2.588436 -1.75,3.90625 -0.004,0.01999 0.004,0.04253 0,0.0625 -0.066,0.330179 0.30117,0.849415 0,1 -0.13205,0.06603 -0.28862,0.09553 -0.4375,0.09375 -1.03138,2.548528 -1.97077,5.141999 -2.8125,7.78125 0.0728,0.06258 0.13186,0.131862 0.21875,0.21875 0.2381,0.238095 -0.23809,0.761904 0,1 0.2381,0.238095 0.76191,-0.238096 1,0 0.2381,0.238095 -0.23809,0.793155 0,1.03125 2.09004,2.090042 -0.0708,-3.204013 2.03125,1 0.71935,1.438704 0.16616,1.18347 -0.1875,0.90625 0.1808,0.161 0.46674,0.404243 1.1875,1.125 0.33672,0.336717 0.57409,0.787042 1,1 0.30117,0.150585 0.84941,-0.301169 1,0 0.30116,0.602339 -0.30117,1.428912 0,2.03125 0.15058,0.30117 0.69453,0 1.03125,0 l 1,0 7.0625,0 c 1.01015,0 2.07293,0.319439 3.03125,0 0.31943,-0.106479 -0.2381,-0.793155 0,-1.03125 2.09004,-2.090042 -0.0707,3.20401 2.03125,-1 0.15059,-0.301169 -0.15058,-0.698831 0,-1 0.21296,-0.425918 0.78704,-0.605332 1,-1.03125 0.30117,-0.602338 -0.30117,-1.397661 0,-2 0.72076,-0.720757 1.0067,-0.964 1.1875,-1.125 -0.35366,0.27722 -0.87561,0.532454 -0.15625,-0.90625 0.21296,-0.425918 0.84941,-0.548246 1,-1 0.3578,-1.073401 -0.3578,-2.9891 0,-4.0625 0.23809,-0.714285 0.76191,-1.285714 1,-2 0.21296,-0.638876 -0.30117,-1.428911 0,-2.03125 0.21296,-0.425918 0.8183,-0.574083 1.03125,-1 0.3067,-0.613388 -0.30669,-5.449112 0,-6.0625 0.9197,-1.8394 0.74597,-0.581992 2,-1 0.71428,-0.238095 1.40478,-0.613603 2.03125,-1.03125 0.79243,-0.528286 1.23882,-1.471714 2.03125,-2 0.62647,-0.417646 1.46761,-0.498853 2,-1.03125 0.47619,-0.476191 -0.47619,-1.52381 0,-2 0.2381,-0.238096 0.69453,0 1.03125,0 0.33671,0 0.7619,0.238095 1,0 0.23809,-0.238096 -0.28017,-0.844473 0,-1.03125 0.88596,-0.590642 1.99824,-0.741749 3.03125,-1 0.32666,-0.08167 0.7619,0.238096 1,0 0.23809,-0.238095 -0.2381,-0.761905 0,-1 1.23035,-1.230349 2.25768,-0.484123 3.03125,-2.03125 0.30117,-0.602339 -0.47619,-1.55506 0,-2.03125 0.23809,-0.238095 0.73008,0.150584 1.03125,0 0.42592,-0.212959 0.57408,-0.787041 1,-1 0.60234,-0.301169 1.52381,0.476191 2,0 0.23809,-0.238095 0,-0.663283 0,-1 L 499,58 c 0.33671,0 0.71181,0.10648 1.03125,0 1.72802,-0.576008 2.0582,-1.657685 4.03125,-1 0.45175,0.150584 0.54825,0.849415 1,1 0.90914,0.303046 2.12211,-0.303046 3.03125,0 0.71429,0.238095 1.31696,0.793154 2.03125,1.03125 0.63887,0.212959 1.35782,0 2.03125,0 l 6.0625,0 c 0.58204,0 4.66307,0.184088 5.03125,0 0.5395,-0.269753 2.49944,-2.499441 3.03125,-3.03125 l 2.03125,-2.03125 c 0.33672,-0.336718 0.73586,-0.603785 1,-1 0.41765,-0.62647 0.49885,-1.498853 1.03125,-2.03125 0.53239,-0.532397 1.4676,-0.467603 2,-1 0.10644,-0.106442 0.0712,-0.269306 0.0312,-0.4375 0.50243,-0.03218 1.01045,-0.06666 1.5,0.03125 0.51681,0.103362 0.89494,0.559672 1.40625,0.6875 0.21012,0.05253 0.42795,0.01381 0.65625,-0.03125 0.0394,-0.431895 0.11893,-0.852506 0.125,-1.28125 -0.0498,-0.0028 -0.0625,-0.03482 -0.0625,-0.09375 0,-0.04714 -8.1e-4,-0.07867 0.0312,-0.09375 -0.005,-0.199277 0.008,-0.397968 -0.0312,-0.59375 -0.10924,-0.546193 -0.69555,-1.925488 -1.3125,-3.28125 0.24292,0.05337 0.52923,0.189513 0.6875,0.03125 2.09004,-2.090042 -3.17276,0.07075 1.03125,-2.03125 2.23327,-1.116632 2.30941,-1 4.03125,-1 0.67344,0 1.36112,0.212959 2,0 0.45175,-0.150584 0.5795,-0.849416 1.03125,-1 0.95831,-0.319438 2.02109,0 3.03125,0 l 9.09375,0 c 0.67343,0 1.36112,0.212959 2,0 0.45175,-0.150585 0.63503,-0.767107 1.03125,-1.03125 0.62647,-0.417646 1.37353,-0.582354 2,-1 0.39622,-0.264143 0.60533,-0.787041 1.03125,-1 0.30116,-0.150584 0.7619,0.238095 1,0 0.23809,-0.238095 0,-0.663283 0,-1 0,-0.52823 0.1328,-3.796889 0,-4.0625 -0.21296,-0.425917 -0.78705,-0.574082 -1,-1 -0.20026,-0.400517 0.20651,-2.824738 0,-3.03125 -0.2381,-0.238095 -0.79315,0.238096 -1.03125,0 -0.47619,-0.47619 0.30117,-1.428911 0,-2.03125 -0.46419,-0.928386 -3.77575,-3.264756 -4.03125,-4.03125 -0.21296,-0.638877 0.37356,-1.470918 0,-2.03125 -0.41764,-0.62647 -1.40478,-0.582353 -2.03125,-1 -2.89057,-1.927042 1.54637,-0.200201 -3.03125,-2.03125 -0.98864,-0.395454 -2.07887,-0.52381 -3.03125,-1 -0.42592,-0.212959 -0.66328,-0.663282 -1,-1 -0.67344,0 -1.42891,0.30117 -2.03125,0 -0.13464,-0.06732 -0.088,-0.22237 -0.0312,-0.40625 z m -9.40625,33.53125 c 0.002,0.06344 0.0322,0.123805 0.0312,0.1875 0.11209,0.0063 0.30576,-0.107772 0.46875,-0.125 -0.18416,-0.03945 -0.40101,-0.109082 -0.5,-0.0625 z m -0.0937,1.46875 c -0.0449,0.492055 -0.0432,0.992914 0.0625,1.46875 0.22867,1.028992 0.93485,1.869691 1.40625,2.8125 0,-0.668532 0.0956,-1.884074 -0.0625,-2.875 l 1.4375,5.65625 c -0.26823,-0.993532 -0.9139,-1.859065 -1.375,-2.78125 0,0.318451 0.1076,1.909803 0,2.125 -0.14907,0.298142 -0.56968,0.420608 -0.71875,0.71875 -0.21082,0.421637 0.33333,1.072917 0,1.40625 -0.33334,0.333333 -1.07291,-0.333333 -1.40625,0 -1.46303,1.463029 2.22406,-0.06515 -0.71875,1.40625 -0.21082,0.105409 -0.52083,-0.166667 -0.6875,0 -0.16667,0.166666 0,0.483048 0,0.71875 l 0,0.6875 c 0,0.235702 -0.10541,0.507931 0,0.71875 0.91259,1.825179 5.19632,1.86618 6.34375,0.71875 -0.8903,-1.780611 -1.28816,-2.583489 -1.5,-2.96875 0.33861,0.495162 0.90705,1.096292 0.375,-1.4375 l 1.125,4.40625 c 1.05409,-1.054093 0.85028,-2.879819 1.4375,-4.25 0.13131,-0.306382 0.53843,-0.420607 0.6875,-0.71875 0.10541,-0.210818 -0.10541,-0.476681 0,-0.6875 0.14907,-0.298142 0.56968,-0.420608 0.71875,-0.71875 0.10541,-0.210819 -0.10541,-0.507932 0,-0.71875 0.71505,-1.43011 1.64464,-0.207144 2.125,-0.6875 0.16667,-0.166667 0,-0.483047 0,-0.71875 0,-0.235702 0.13074,-0.491384 0,-0.6875 -0.89345,-1.340169 -1.53958,-1.472916 -2.84375,-2.125 -0.4714,-0.235702 -0.90625,-0.552083 -1.40625,-0.71875 -0.22361,-0.07454 -0.49514,0.07454 -0.71875,0 -5.12187,-1.707289 1.11115,0.211825 -2.125,-1.40625 -0.21082,-0.105409 -0.47668,0.105409 -0.6875,0 -0.29814,-0.149071 -0.42061,-0.569679 -0.71875,-0.71875 l 0.53125,2.21875 c -0.11334,-0.345547 -0.28032,-0.645215 -0.53125,-0.8125 -0.21202,-0.141345 -0.48141,-0.08426 -0.75,-0.03125 z M 520.2188,42.84375 c -0.0379,-0.189291 -0.0801,-0.37391 -0.125,-0.5625 -0.83443,-0.593179 -3.90625,-0.517586 -3.90625,0.5625 0,1.34687 2.68438,0 4.03125,0 z m -14.75,-15.28125 c -0.10197,0.006 -0.23071,0.04543 -0.34375,0.0625 -4.52816,2.435203 -8.88033,5.195597 -13,8.21875 0.24901,0.05681 0.5767,-0.0625 0.84375,-0.0625 0.33672,0 0.76191,-0.238095 1,0 0.2381,0.238095 -0.23809,0.793154 0,1.03125 2.09005,2.090041 -0.0708,-3.204013 2.03125,1 0.15058,0.30117 -0.2381,0.761905 0,1 0.2764,0.2764 3.48325,-0.273998 4.03125,0 0.42592,0.212959 0.66328,0.663283 1,1 0.67344,0 1.39237,-0.212959 2.03125,0 3.15301,1.051004 -0.34687,0.68438 1,2.03125 0.47619,0.476191 1.55505,-0.47619 2.03125,0 0.23809,0.238096 -0.33672,1 0,1 1.64273,0 0.23471,-1.882644 2,-1 0.26299,0.131497 1.24158,1.789662 2.03125,1 0.23809,-0.238095 -0.15059,-0.69883 0,-1 0.21295,-0.425917 0.78704,-0.574082 1,-1 0.15058,-0.301169 -0.15059,-0.73008 0,-1.03125 0.21296,-0.425917 0.81829,-0.574083 1.03125,-1 0.0431,-0.08611 0.0431,-3.945139 0,-4.03125 -0.21296,-0.425918 -0.81829,-0.574082 -1.03125,-1 -0.69668,-1.393361 1.2335,-0.914499 -1,-2.03125 -1.39337,-0.696681 -0.9145,1.233503 -2.03125,-1 -0.15058,-0.301169 0.2381,-0.793155 0,-1.03125 -2.09004,-2.090042 0.102,3.204013 -2,-1 -0.15059,-0.301169 0.23809,-0.761905 0,-1 -0.12627,-0.126269 -0.3566,-0.172034 -0.625,-0.15625 z m 112.75,13.28125 1,4.03125 c 0.33672,0.336718 0.78704,0.574082 1,1 0.30117,0.602338 -0.47619,1.555059 0,2.03125 0.2381,0.238095 0.79315,-0.238096 1.03125,0 0.23809,0.238095 -0.2381,0.761905 0,1 0.23809,0.238095 0.7619,-0.238095 1,0 0.23809,0.238095 -0.15059,0.73008 0,1.03125 0.21296,0.425917 0.84942,0.548246 1,1 0.0839,0.251825 -0.10406,4.958441 0,5.0625 0.2381,0.238095 0.79316,-0.238095 1.03125,0 0.2381,0.238095 -0.23809,0.761904 0,1 0.50508,0.505076 2.52617,-0.505077 3.03125,0 0.2381,0.238095 -0.23809,0.761905 0,1 0.2381,0.238095 0.66329,0 1,0 l 1,0 c 0.33671,0 0.79315,0.238095 1.03125,0 0.23809,-0.238095 0.23809,-0.761905 0,-1 -0.2381,-0.238096 -0.79316,0.238095 -1.03125,0 -0.0528,0.515433 -0.25696,-0.05909 -1,-3.03125 -0.13245,-0.529826 0.1729,-3.858351 0,-4.03125 -2.09004,-2.090042 0.0707,3.172763 -2.03125,-1.03125 -0.15059,-0.301169 0.15058,-0.698831 0,-1 -0.13411,-0.268207 -2.76304,-2.897147 -3.03125,-3.03125 -0.34058,-0.17029 -2.91569,0.154077 -3.03125,0 -0.90351,-1.204677 -1.32657,-2.68438 -2,-4.03125 z m -123.75,15.09375 c 0.18044,-0.02309 0.34942,-0.01279 0.5,0.0625 0.0205,0.01024 0.0432,0.01938 0.0625,0.03125 -0.4783,0.04991 -0.95573,0.116311 -1.375,0.09375 0.26358,-0.05182 0.54608,-0.153415 0.8125,-0.1875 z M 629.3125,56 c 0,0.326558 -0.20368,0.726556 0,0.96875 0.0131,-0.172783 0.003,-0.636438 0,-0.96875 z m -161.53125,4.4375 c -0.29756,0.413828 -0.58307,0.831898 -0.875,1.25 0.15595,0.176413 0.39739,0.111466 0.78125,-0.65625 0.0928,-0.185533 0.11061,-0.386607 0.0937,-0.59375 z M 637.625,66 c -0.0796,0.01116 -0.15923,0.03423 -0.21875,0.09375 -0.2381,0.238096 0,0.663283 0,1 -0.67344,0 -1.42891,-0.301169 -2.03125,0 -0.30117,0.150585 0.2381,0.793154 0,1.03125 -2.09004,2.090041 0.102,-3.204013 -2,1 -0.0751,0.150175 -0.0739,3.80944 0,4.03125 0.57341,1.720228 2.20024,3.260311 2,5.0625 1.34687,0.673435 2.66436,1.440743 4.0625,2 0.23978,0.09591 2.87269,0.158562 3.03125,0 0.47619,-0.47619 -0.47619,-1.52381 0,-2 0.5324,-0.532397 1.46761,-0.498852 2,-1.03125 0.5324,-0.532397 0.49885,-1.467602 1.03125,-2 0.23809,-0.238095 0.7619,0.238096 1,0 2.09004,-2.090041 -3.20401,0.07076 1,-2.03125 0.30117,-0.150584 0.79316,0.238096 1.03125,0 0.47619,-0.47619 -0.30117,-1.397661 0,-2 0.21296,-0.425918 0.66328,-0.694533 1,-1.03125 0.33671,-0.336718 0.57408,-0.787041 1,-1 0.30117,-0.150585 0.79316,0.238095 1.03125,0 0.2381,-0.238095 0,-0.663283 0,-1 -0.20697,-0.345477 -0.41436,-0.688247 -0.625,-1.03125 -0.14842,0.03587 -0.28933,0.05846 -0.40625,0 -0.42592,-0.212959 -0.54825,-0.849415 -1,-1 -0.63888,-0.212958 -1.35781,0 -2.03125,0 l -2,0 -6.0625,0 -1.03125,0 c -0.25254,0 -0.54258,-0.127232 -0.78125,-0.09375 z m -2.25,12.21875 -1.75,4.09375 c 0.72473,0.0044 1.35217,-0.513283 1.75,-4.09375 z m -1.75,4.09375 c -0.72473,-0.0044 -1.53739,-0.55022 -2.28125,0.9375 -0.15058,0.301169 0,0.694533 0,1.03125 0,0.336718 -0.23809,0.761905 0,1 0.2381,0.238095 0.66329,0 1,0 L 633.625,82.3125 z M 557.75,66.96875 c -0.38191,0.0292 -0.77744,0.125 -1.15625,0.125 l -1,0 c -0.33672,0 -0.79316,-0.238095 -1.03125,0 -0.2381,0.238095 0.23809,0.793154 0,1.03125 -0.47619,0.47619 -1.39766,-0.30117 -2,0 -0.42592,0.212958 -0.60533,0.787041 -1.03125,1 -0.30117,0.150585 -0.76191,-0.238095 -1,0 -0.2381,0.238095 0.23809,0.761904 0,1 -0.5324,0.532397 -1.40478,0.613604 -2.03125,1.03125 -0.39621,0.264143 -0.66328,0.663282 -1,1 l -3.03125,3.03125 c -0.33672,0.336718 -0.57408,0.787041 -1,1 -0.30117,0.150585 -0.71181,-0.10648 -1.03125,0 -2.18102,0.727005 -2.88294,1.013517 -2.96875,1.09375 0.4173,0.002 2.82692,-0.50721 -0.0625,0.9375 -0.95238,0.47619 -2.01136,0.604545 -3,1 -3.4834,1.393361 -0.5955,0.914498 -5.0625,2.03125 -1.16134,0.290334 -2.99401,-0.518621 -4.03125,0 -0.30117,0.150584 0.30117,0.849416 0,1 -0.15805,0.07902 -4.78009,0 -5.0625,0 -0.64561,0 -5.77111,0.145695 -6.0625,0 -0.30117,-0.150584 0.15059,-0.698831 0,-1 -0.21296,-0.425918 -0.57408,-0.818291 -1,-1.03125 -0.30117,-0.150585 -0.69454,0 -1.03125,0 l -2,0 -4.0625,0 -1,0 c -0.33672,0 -0.76191,0.238095 -1,0 -0.2381,-0.238095 0.15058,-0.698831 0,-1 -0.21296,-0.425918 -0.69453,-0.663282 -1.03125,-1 -0.33671,-0.336717 -0.57408,-0.818291 -1,-1.03125 -0.30117,-0.150584 -0.76191,0.238096 -1,0 -0.47619,-0.47619 0.47619,-1.523809 0,-2 -0.2381,-0.238095 -0.79316,-0.238095 -1.03125,0 -2.02031,2.020305 0.33592,2.357815 -3.03125,3.03125 -0.99054,0.198107 -2.00359,-0.166068 -3,0 -1.05031,0.175051 -1.98713,0.791176 -3.03125,1 -0.66036,0.132071 -1.39238,-0.212959 -2.03125,0 -0.45176,0.150584 -0.57408,0.787041 -1,1 -0.30116,0.150585 -0.73008,-0.150585 -1.03125,0 -0.42592,0.212959 -0.57408,0.818291 -1,1.03125 -0.30117,0.150584 -0.76191,-0.238096 -1,0 -0.2381,0.238095 0.18677,0.719834 0,1 -0.79243,1.188643 -2.0211,2.021097 -3.03125,3.03125 -0.67344,0.673435 -1.60533,1.179415 -2.03125,2.03125 -0.30117,0.602339 0.16334,1.346672 0,2 -0.18261,0.730443 -0.7619,1.316964 -1,2.03125 -0.10648,0.319438 0,0.663282 0,1 l 0,2.03125 c 0,0.336717 -0.15058,0.698831 0,1 0.42592,0.851836 1.57408,1.179415 2,2.03125 0.71935,1.438706 0.19741,1.183471 -0.15625,0.90625 0.1808,0.161 0.46674,0.404243 1.1875,1.125 0.15058,0.30117 -0.2381,0.7619 0,1 0.23809,0.23809 0.76191,-0.2381 1,0 0.47619,0.47619 -0.47619,1.55506 0,2.03125 0.47619,0.47619 1.42891,-0.30117 2.03125,0 0.42591,0.21296 0.57408,0.78704 1,1 0.30117,0.15058 0.76191,-0.2381 1,0 0.0406,0.0406 0,3.66028 0,4.03125 0,0.33671 0.2381,0.79315 0,1.03125 -0.23809,0.23809 -0.76191,-0.2381 -1,0 -0.2381,0.23809 0.15058,0.69883 0,1 -0.21296,0.42592 -0.78704,0.57409 -1,1 -0.15059,0.30117 0.10648,0.71181 0,1.03125 -0.47619,1.42857 -1.55506,2.60267 -2.03125,4.03125 -0.13102,0.39307 0.15676,2.87449 0,3.03125 -0.23809,0.2381 -0.66328,0 -1,0 -0.33672,0 -0.79316,0.2381 -1.03125,0 -0.2381,-0.23809 0.30117,-0.88066 0,-1.03125 -0.33403,-0.16701 -4.25382,0 -5.03125,0 l -1.03125,0 c -0.33672,0 -0.69883,-0.15058 -1,0 -0.89534,0.44767 -2.11169,2.41821 -3.03125,3.03125 -0.62647,0.41765 -1.49886,0.49885 -2.03125,1.03125 -0.2381,0.2381 0.23809,0.76191 0,1 -0.2381,0.2381 -0.7619,-0.23809 -1,0 -0.23809,0.2381 0.2381,0.7619 0,1 -0.23809,0.23809 -0.7619,-0.2381 -1,0 -0.23809,0.23809 0.10648,0.71181 0,1.03125 -0.23809,0.71428 -0.6136,1.37353 -1.03125,2 -0.26414,0.39622 -0.66329,0.69453 -1,1.03125 -0.33672,0 -0.7619,-0.2381 -1,0 -0.24307,0.24307 0.24308,3.78817 0,4.03125 -0.23809,0.23809 -0.79315,-0.2381 -1.03125,0 -0.23809,0.23809 0.10648,0.68056 0,1 -0.23809,0.71429 -0.76191,1.31697 -1,2.03125 -0.10648,0.31944 0.15058,0.69883 0,1 -1.20945,2.4189 -2.03125,-0.62564 -2.03125,2.03125 l 0,5.0625 0,2 c -9.6e-4,-9.6e-4 -3.02625,0.002 -3.03125,0 -0.45176,-0.15058 -0.57408,-0.78704 -1,-1 -0.30117,-0.15059 -0.7619,0.23809 -1,0 -0.23809,-0.2381 -0.23809,-0.7619 0,-1 0.2381,-0.23809 0.76191,0.2381 1,0 2.09004,-2.09 -3.20402,0.0708 1,-2.03125 0.30116,-0.15058 0.79315,0.2381 1.03125,0 0.23809,-0.2381 0,-0.66329 0,-1 l 0,-4.0625 c 0,-0.33672 0.15058,-0.69883 0,-1 -0.21296,-0.42591 -0.8183,-0.57408 -1.03125,-1 -0.30117,-0.60234 0.47619,-1.55506 0,-2.03125 -0.2381,-0.2381 -0.69883,0.15058 -1,0 -0.42591,-0.21296 -0.57408,-0.78704 -1,-1 -0.95238,-0.47619 -2.07887,-0.55506 -3.03125,-1.03125 -1.08588,-0.54294 -2.0211,-1.32657 -3.03125,-2 -0.64669,-0.43112 -1.34838,-0.79365 -2,-1.21875 0.0361,1.52819 0.14393,4.72446 -0.0312,5.25 -0.63841,1.91522 -0.88323,1.94532 -0.96875,1.96875 0.14037,1.70402 0.31409,3.41264 0.53125,5.09375 0.16959,-0.0514 0.33106,-0.10644 0.4375,0 0.2381,0.2381 -0.10648,0.71181 0,1.03125 0.2381,0.71428 0.69454,1.32657 1.03125,2 0.67344,1.34687 1.63478,2.60162 2,4.0625 0.32666,1.30666 -0.54702,2.80047 0,4.03125 0.87565,1.97022 2.73881,3.36062 4.0625,5.0625 2.06724,2.65788 3.87564,5.47576 6.03125,8.0625 0.6097,0.73164 1.60533,1.17942 2.03125,2.03125 0.30117,0.60234 -0.30117,1.39766 0,2 0.42592,0.85183 1.50297,1.23882 2.03125,2.03125 0.11441,0.17161 0,5.41577 0,6.0625 l 0,10.5 c 4.8779,7.28462 10.6,13.96165 17.03125,19.875 0.0421,-0.0167 0.0901,-0.0276 0.125,-0.0625 0.23809,-0.23809 -0.15059,-0.73008 0,-1.03125 2.102,-4.20401 -0.0588,1.09004 2.03125,-1 1.34687,-1.34687 -2.15301,-0.98024 1,-2.03125 0.57464,-0.19154 4.1111,0 5.0625,0 0.53963,0 4.77339,-0.14455 5.0625,0 2.2335,1.11675 0.30332,0.63789 1,2.03125 0.21296,0.42592 0.78705,0.57408 1,1 0.15059,0.30117 -0.15058,0.73008 0,1.03125 0.21296,0.42592 0.78704,0.57408 1,1 0.30117,0.60233 -0.30117,1.42891 0,2.03125 0.21296,0.42592 0.81829,0.57409 1.03125,1 0.89791,1.79583 -0.5823,0.55104 -1.03125,1 -0.2381,0.23809 0,0.69453 0,1.03125 l 0,2 c 0,0.33672 -0.15059,0.73008 0,1.03125 0.21296,0.42591 0.81829,0.57408 1.03125,1 0.15058,0.30117 -0.2381,0.76191 0,1 0.75292,0.75292 1.99825,-0.74175 3.03125,-1 0.65333,-0.16333 1.36113,0.21296 2,0 0.45176,-0.15059 0.69453,-0.66329 1.03125,-1 0.33671,-0.33672 0.78704,-0.60533 1,-1.03125 0.15058,-0.30117 -0.2381,-0.7619 0,-1 1.34687,-1.34687 1,1.69374 1,-1 0.2381,-0.2381 0.88067,0.30117 1.03125,0 0.30117,-0.60234 0,-1.35781 0,-2.03125 0,-1.91605 0.48427,-4.54698 -1.03125,-6.0625 -0.23809,-0.2381 -0.76191,0.23809 -1,0 -0.2381,-0.2381 0.23809,-0.76191 0,-1 -0.2381,-0.2381 -0.76191,0.23809 -1,0 -0.2381,-0.2381 0.15058,-0.73008 0,-1.03125 -0.21296,-0.42592 -0.81829,-0.57408 -1.03125,-1 -0.15058,-0.30117 0.2381,-0.76191 0,-1 -0.23809,-0.2381 -0.68056,0.10648 -1,0 -0.71429,-0.2381 -1.49886,-0.49885 -2.03125,-1.03125 -0.2381,-0.23809 0.15058,-0.69883 0,-1 -0.20898,-0.41795 -2.60309,-2.7458 -3.03125,-3.03125 -0.62647,-0.41764 -1.4676,-0.4676 -2,-1 -0.23809,-0.23809 0.2381,-0.76191 0,-1 -0.23809,-0.2381 -0.7619,0.23809 -1,0 -0.0458,-0.0458 0,-4.58622 0,-5.0625 l 0,-1 c 0,-0.33671 0.15058,-0.73008 0,-1.03125 -0.21296,-0.42592 -0.81829,-0.57408 -1.03125,-1 -0.20026,-0.40052 0.20651,-2.82474 0,-3.03125 -2.09001,-2.09004 0.10201,3.20401 -2,-1 -0.15058,-0.30117 0.2381,-0.79316 0,-1.03125 -0.0981,-0.0981 -4.67756,0 -5.0625,0 l -8.09375,0 -1,0 c -0.33672,0 -0.7619,0.23809 -1,0 -0.47619,-0.47619 0.30117,-1.39766 0,-2 -0.21295,-0.42592 -0.81829,-0.60533 -1.03125,-1.03125 -0.15058,-0.30117 0.2381,-0.76191 0,-1 -0.23809,-0.2381 -0.76191,0.23809 -1,0 -0.2381,-0.2381 0.23809,-0.7619 0,-1 -0.2381,-0.23809 -0.76191,0.2381 -1,0 -0.50508,-0.50507 0.50507,-2.52618 0,-3.03125 -0.2381,-0.2381 -0.79315,0.23809 -1.03125,0 -0.23809,-0.2381 0.2381,-0.79315 0,-1.03125 -2.09,-2.09004 0.10201,3.20401 -2,-1 -0.15059,-0.30117 0.23809,-0.76191 0,-1 -0.2381,-0.2381 -0.79316,0.23809 -1.03125,0 -0.2381,-0.2381 0.15058,-0.73008 0,-1.03125 -0.21296,-0.42592 -0.66328,-0.66328 -1,-1 -0.33671,-0.33671 -0.57408,-0.78704 -1,-1 -0.30117,-0.15058 -0.79316,0.2381 -1.03125,0 -0.2381,-0.23809 0,-0.69453 0,-1.03125 l 0,-5.03125 0,-2.03125 c 0,-0.33672 -0.2381,-0.76191 0,-1 0.23809,-0.2381 0.69453,0 1.03125,0 l 1,0 c 0.67344,0 1.39237,-0.21296 2.03125,0 0.45175,0.15058 0.57408,0.78704 1,1 0.26561,0.13281 3.50302,0 4.03125,0 2.02263,0 0.12941,0.16074 3.03125,-1 0.98864,-0.39546 1.98713,-0.79118 3.03125,-1 0.66035,-0.13208 1.35782,0 2.03125,0 l 3.03125,0 2.03125,0 c 0.33672,0 1,-0.33672 1,0 0,0.47619 -0.78704,0.57408 -1,1 -0.15058,0.30117 0.2381,0.76191 0,1 -0.23809,0.2381 -0.79315,-0.23809 -1.03125,0 -0.23809,0.2381 0,0.66329 0,1 0,0.67344 -0.21296,1.39237 0,2.03125 0.47619,1.42857 1.55506,2.60268 2.03125,4.03125 0.10648,0.31944 -0.2381,0.79316 0,1.03125 0.53239,0.5324 1.35782,0.66329 2.03125,1 0.67344,0.33672 1.28571,0.7619 2,1 0.64508,0.21502 4.79286,-0.26964 5.0625,0 0.2381,0.23809 -0.15058,0.73008 0,1.03125 0.60609,1.21218 2.42516,1.81906 3.03125,3.03125 0.15058,0.30117 -0.15059,0.69883 0,1 0.21296,0.42592 0.73586,0.60379 1,1 0.41765,0.62647 0.46761,1.49885 1,2.03125 0.2381,0.23809 0.79315,-0.2381 1.03125,0 0.23809,0.23809 -0.2381,0.7619 0,1 9.6e-4,9.6e-4 3.02625,-0.002 3.03125,0 0.45176,0.15058 0.57408,0.81829 1,1.03125 0.11274,0.0564 4.94975,0.0564 5.0625,0 0.42592,-0.21296 0.57408,-0.81829 1,-1.03125 0.30117,-0.15059 0.66329,0 1,0 l 2.03125,0 5.0625,0 c 0.33672,0 0.76191,0.23809 1,0 0.2381,-0.2381 0,-0.66329 0,-1 l 0,-3.03125 0,-3.03125 c 0,-1.01015 0.245,-2.05125 0,-3.03125 -1.24397,-4.97591 -2.03125,6.63509 -2.03125,-4.03125 -0.15059,-0.30117 0.23809,-0.79315 0,-1.03125 -0.47619,-0.47619 -1.39766,0.30117 -2,0 -0.42591,-0.21296 -0.69453,-0.66328 -1.03125,-1 -0.33672,0 -0.69883,0.15058 -1,0 -0.42592,-0.21296 -0.57409,-0.78705 -1,-1 -0.43142,-0.21571 -4.66317,0 -5.0625,0 -0.33671,0 -0.69883,-0.15059 -1,0 -0.42592,0.21295 -0.56928,0.88451 -1.03125,1 -4.77649,1.19412 -1.70821,0.16152 -4.03125,-1 -0.60234,-0.30117 -1.55506,0.47619 -2.03125,0 -0.47619,-0.47619 0.30117,-1.42891 0,-2.03125 -0.21296,-0.42592 -0.78704,-0.57408 -1,-1 -0.15058,-0.30117 0,-0.66329 0,-1 0,-0.33672 -0.2381,-0.79315 0,-1.03125 0.47619,-0.47619 1.55505,0.47619 2.03125,0 0.23809,-0.23809 -0.2381,-0.7619 0,-1 9.6e-4,-9.6e-4 3.02625,0.002 3.03125,0 0.45176,-0.15058 0.78704,-0.57408 1,-1 0.0264,-0.0529 0.0264,-2.97845 0,-3.03125 -0.21296,-0.42592 -0.78704,-0.60533 -1,-1.03125 -0.15058,-0.30117 0.15059,-0.69884 0,-1 -0.21296,-0.42592 -0.69453,-0.66328 -1.03125,-1 -0.33672,-0.33671 -0.57408,-0.81829 -1,-1.03125 -0.26561,-0.13281 -3.50302,0 -4.03125,0 l -10.09375,0 c -1.01015,0 -2.07293,0.31944 -3.03125,0 -0.45175,-0.15058 -0.60533,-0.78704 -1.03125,-1 -0.30117,-0.15059 -0.76191,0.23809 -1,0 -0.2381,-0.2381 0.23809,-0.7619 0,-1 -0.2381,-0.23809 -0.66329,0 -1,0 l -1.03125,0 -7.0625,0 c -0.45493,0 -2.72383,0.15372 -3.03125,0 -0.85184,-0.42591 -1.17941,-1.60533 -2.03125,-2.03125 -0.60233,-0.30117 -1.39766,0.30117 -2,0 -1.72444,-0.86222 -1.03125,-2.35365 -1.03125,-4.03125 0,-0.33672 0.23809,-0.79316 0,-1.03125 -0.5324,-0.5324 -1.4676,-0.4676 -2,-1 -0.14246,-0.14245 -0.1036,-2.82404 0,-3.03125 0.21296,-0.42592 0.78704,-0.57408 1,-1 0.15059,-0.30116 -0.23809,-0.79315 0,-1.03125 0.36287,-0.36286 3.37773,0.32676 4.03125,0 1.70367,-0.85183 2.39744,-3.10621 4.0625,-4.03125 2.24166,-1.24536 4.62973,-2.22032 7.0625,-3.03125 3.30428,-1.10142 4.38144,-0.83771 5.84375,-1.125 0.29295,0.23615 0.67173,0.57798 1.21875,1.125 0.33672,0.33672 0.63504,0.73585 1.03125,1 0.62647,0.41764 1.37353,0.6136 2,1.03125 0.79243,0.52829 1.12774,1.69883 2.03125,2 0.95832,0.31944 2.0211,0 3.03125,0 l 7.0625,0 c 3.42299,-3.15273 3.00175,-3.03125 6.0625,-3.03125 0.25254,0 0.57383,0.15848 0.8125,0.125 0.10419,0.0449 0.1875,0.001 0.1875,-0.125 0.23809,-0.2381 0.23809,-0.7619 0,-1 -0.11381,-0.11381 -0.34732,-0.20099 -0.5625,-0.21875 -0.17746,-0.25049 -0.34482,-0.50321 -0.4375,-0.78125 -0.10648,-0.31944 -0.23809,-0.79316 0,-1.03125 1.25605,-1.25605 2.5305,-1 4.03125,-1 0.33672,0 0.73008,0.15058 1.03125,0 0.42591,-0.21296 0.57408,-0.78704 1,-1 0.53875,-0.26937 1.80812,0.585 1,-1.03125 -2.10201,-4.20401 0.09,1.09004 -2,-1 -0.2381,-0.2381 0.23809,-0.76191 0,-1 -0.5324,-0.5324 -1.49885,-0.4676 -2.03125,-1 -0.23809,-0.23809 0.2381,-0.79315 0,-1.03125 -0.47619,-0.47619 -1.42892,0.30117 -2.03125,0 -0.42592,-0.21296 -0.57408,-0.78704 -1,-1 -0.30117,-0.15059 -0.69883,0.15058 -1,0 -0.42592,-0.21296 -0.60533,-0.78705 -1.03125,-1 -0.30117,-0.15059 -0.66329,0 -1,0 -0.33672,0 -0.69883,-0.15059 -1,0 -2.08685,1.04342 0.0503,1.6435 -2.03125,3.03125 -0.62647,0.41765 -1.40478,0.58235 -2.03125,1 -0.39621,0.26414 -0.57408,0.78704 -1,1 -0.90351,0.45175 -2.12774,-0.45176 -3.03125,0 -0.30117,0.15058 0.2381,0.76191 0,1 -0.23809,0.2381 -0.66328,0 -1,0 -0.33672,0 -0.71181,0.10648 -1.03125,0 -0.71429,-0.23809 -1.28571,-0.76191 -2,-1 -0.0839,-0.028 -1.10348,-0.0394 -1.96875,-0.0312 -0.4479,-0.43245 -0.89502,-0.80128 -1.0625,-0.96875 -0.33671,-0.33672 -0.73585,-0.60378 -1,-1 -0.41764,-0.62647 -0.49885,-1.49885 -1.03125,-2.03125 -0.2381,-0.2381 -0.76191,0.23809 -1,0 -0.2381,-0.2381 0,-0.66329 0,-1 0,-0.70261 -0.18266,-4.69719 0,-5.0625 0.21296,-0.42591 0.78704,-0.57408 1,-1 0.12705,-0.25411 -0.12215,-0.65227 -0.0625,-0.90625 -0.33424,0.0341 -0.64574,0.0209 -0.9375,-0.125 -0.30117,-0.15059 0,-0.66329 0,-1 l 0,-1 0,-1.03125 c 0,-0.33672 -0.15059,-0.69883 0,-1 0.21296,-0.42592 0.78704,-0.574082 1,-1 0.15058,-0.301169 0,-0.694533 0,-1.03125 0,-0.673435 -0.13207,-1.339643 0,-2 1.051,-5.255016 0.68438,-1.02189 2.03125,-5.0625 0.10648,-0.319438 -0.23809,-0.761905 0,-1 0.2381,-0.238096 0.7619,0.238095 1,0 0.23809,-0.238096 -0.2381,-0.793155 0,-1.03125 0.3526,-0.3526 2.8216,0.419309 3.03125,0 0.30117,-0.602339 -0.30116,-1.397661 0,-2 0.15059,-0.301169 0.7619,0.238095 1,0 0.23809,-0.238095 -0.15059,-0.73008 0,-1.03125 0.21296,-0.425917 0.69453,-0.663283 1.03125,-1 0.67343,-0.673435 1.23809,-1.459822 2,-2.03125 0.60233,-0.451754 1.40478,-0.582353 2.03125,-1 0.39621,-0.264143 0.52381,-1 1,-1 0.47619,0 0.69453,0.663283 1.03125,1 1.24824,1.248248 0.51366,1 2,1 0.2381,0.238095 -0.15058,0.730081 0,1.03125 0.21296,0.425918 0.81829,0.574082 1.03125,1 0.20026,0.400517 -0.20651,2.824738 0,3.03125 0.2381,0.238096 0.7619,-0.238095 1,0 0.23809,0.238096 -0.2381,0.761905 0,1 0.23809,0.238095 0.69883,-0.150585 1,0 4.20401,2.102005 -1.05879,-0.05879 1.03125,2.03125 0.2381,0.238095 0.76191,-0.238095 1,0 0.2381,0.238095 2.01581,0.452545 0,1 0.2381,0.238095 1.35078,1.5625 1.6875,1.5625 0.33671,0 3.13203,-2.21875 3.46875,-2.21875 0.86179,0 3.56217,0.843911 3.9375,0.65625 0.42591,-0.212959 0.57408,-0.787041 1,-1 1.62184,-0.810923 0.59282,1.563432 1.875,0.28125 0.98169,-0.981692 1.9603,1.196279 3.34375,1.3125 0.78985,0.06635 0.55936,-1.475951 1.90625,-1.8125 l 0.1875,-1.84375 c 1.34687,1.683588 0.58529,3.299813 1.78125,5.09375 0.18678,0.280166 0,0.663283 0,1 0,0.336718 0.2381,0.793155 0,1.03125 -0.23809,0.238095 -0.76191,-0.238095 -1,0 -0.2381,0.238095 0.15058,0.698831 0,1 -2.10201,4.20401 0.0588,-1.090042 -2.03125,1 -0.53239,0.532397 -0.4676,1.498851 -1,2.03125 -0.20651,0.20651 -2.63073,-0.20026 -3.03125,0 -0.42591,0.21296 -0.57408,0.78704 -1,1 -0.67343,0.33672 -2.39628,-0.81991 -2.28125,1.09375 -0.39621,0.26415 -0.60533,0.81829 -1.03125,1.03125 -0.60234,0.30115 -2.27381,-0.56994 -2.75,-0.0937 -0.2381,0.23809 0,0.66328 0,1 0,0.33672 -0.15059,0.73008 0,1.03125 0.60609,1.21218 2.42516,1.81907 3.03125,3.03125 0.15059,0.30117 -0.23809,0.76191 0,1 2.09001,2.09004 0.71141,-0.0305 3.34375,0.59375 0.15058,0.30117 -1.45023,1.11806 -1.34375,1.4375 0.23809,0.71428 0.79316,1.28572 1.03125,2 0.10648,0.31944 -0.23809,0.79316 0,1.03125 0.2381,0.2381 0.66329,0 1,0 0.34414,0 3.48455,0.18224 4.03125,0 0.71429,-0.23809 1.48045,-1.75859 2.21875,-1.90625 1.32071,-0.26414 2.49688,0.875 3.84375,0.875 2.36899,0 -0.46524,0.24825 2.03125,-1 0.30117,-0.15059 0.7619,0.23809 1,0 0.23809,-0.2381 -0.49434,-1.41758 -0.34375,-1.71875 0.21296,-0.42592 1.13079,0.11342 1.34375,-0.3125 0.15058,-0.30117 -0.90625,-0.75703 -0.90625,-1.09375 0,-0.33672 0.90625,-0.56953 0.90625,-0.90625 0,-0.67343 -0.0227,-0.97603 -0.0312,-1.09375 0.0557,0.20458 0.29993,0.82507 1.0625,0.0625 0.2381,-0.2381 -0.23809,-0.7619 0,-1 0.2381,-0.23809 0.76191,0.2381 1,0 0.20652,-0.20651 -0.20025,-2.63074 0,-3.03125 2.01462,-4.029246 0.53807,1.0078 2.25,-0.40625 0.009,0.0741 0.007,0.13232 0.0625,0.1875 0.16667,0.16666 0.55208,-0.16667 0.71875,0 0.33333,0.33333 -0.21082,1.01586 0,1.4375 0.14907,0.29814 0.56968,0.38935 0.71875,0.6875 0.10541,0.21081 -0.16667,0.55209 0,0.71875 0.16667,0.16667 0.45179,0 0.6875,0 l 0.71875,0 0.71875,0 c 0.2357,0 0.52083,0.16667 0.6875,0 0.16666,-0.16666 -0.10541,-0.50794 0,-0.71875 0.95414,-1.9083 0.34023,0.044 1.4375,-0.6875 0.5547,-0.3698 0.93485,-0.9661 1.40625,-1.4375 0.2357,0 0.47668,0.1054 0.6875,0 0.29814,-0.14908 0.39537,-0.6067 0.71875,-0.6875 0.68599,-0.1715 1.41789,0 2.125,0 0.2357,0 0.55209,0.16667 0.71875,0 0.16667,-0.16667 -0.16666,-0.55208 0,-0.71875 0.17016,-0.17015 2.64235,0.17015 2.8125,0 0.55276,-0.55276 -0.62675,-1.22216 -0.71875,-1.40625 -0.29186,-0.583722 -0.0967,-0.717269 0.0937,-0.71875 -0.0937,-0.03553 -0.42289,-0.17442 -0.59375,-0.25 0.16039,-0.161071 0.31818,-0.301136 0.5,-0.4375 0.9377,-0.703273 1.53516,-0.454421 2.125,-1.4375 1.94126,-3.235433 1.59195,-2.99659 1.375,-2.78125 0.0951,-0.121637 0.68459,-0.923092 1.5,-2 0.40716,-0.206544 0.65625,-0.506218 0.65625,-0.875 0,-1.374369 -2.3877,-1.331387 -3.53125,-2.09375 -0.27735,-0.1849 -0.35417,-0.71875 -0.6875,-0.71875 -0.23309,-0.23309 -2.33205,0.170565 -2.84375,0 -0.31623,-0.10541 -0.38935,-0.569679 -0.6875,-0.71875 -0.21082,-0.105409 -0.49515,0.07453 -0.71875,0 -0.21647,-0.07216 -0.47456,-0.176376 -0.71875,-0.3125 0.26099,-0.621746 0.69281,-1.172179 0.90625,-1.8125 0.10648,-0.319438 -0.30117,-0.849416 0,-1 0.60234,-0.301169 1.42891,0.301169 2.03125,0 0.30117,-0.150585 -0.23809,-0.761904 0,-1 0.2381,-0.238095 0.69883,0.150585 1,0 1.02836,-0.514183 1.62113,-2.211018 2.03125,-3.03125 l 1,-2.03125 c 0.33672,-0.673435 0.84863,-1.300807 1.03125,-2.03125 0.24499,-0.979991 0,-1.989848 0,-3 l 0,-1.03125 c 0,-0.336717 0.15058,-0.698831 0,-1 -0.21296,-0.425918 -0.81829,-0.574082 -1.03125,-1 -0.15058,-0.301169 0.2381,-0.793155 0,-1.03125 -0.23809,-0.238096 -0.7619,0.238095 -1,0 -0.2381,-0.238096 0.15058,-0.698831 0,-1 -0.21296,-0.425918 -0.78704,-0.574083 -1,-1 -0.15059,-0.30117 0.30117,-0.880665 0,-1.03125 -0.15058,-0.07529 -0.33497,-0.110883 -0.5,-0.125 -0.12377,-0.01059 -0.2477,-0.0097 -0.375,0 z m -65.875,37.625 c 0.3558,-0.0363 0.74651,-0.125 1.09375,-0.125 -0.33672,0 -0.79316,-0.2381 -1.03125,0 -0.0372,0.0372 -0.0514,0.078 -0.0625,0.125 z m 31.375,57.46875 c 0.0532,0.10648 0.1307,0.19986 0.21875,0.28125 -0.12536,-0.35451 -0.21875,-0.58183 -0.21875,-0.28125 z m 0.21875,0.28125 c 0.18866,0.53349 0.49264,1.39889 0.8125,1.71875 0.2381,0.23809 0.15059,-0.69883 0,-1 -0.15972,-0.31944 -0.54836,-0.47457 -0.8125,-0.71875 z M 448.53125,126.5 c -0.005,-0.22329 -0.0312,-0.68773 -0.0312,-0.8125 0,-0.33672 0.2381,-0.76191 0,-1 -0.2381,-0.2381 -0.76191,-0.2381 -1,0 -0.2381,0.23809 -0.2381,0.76191 0,1 0.30889,0.30889 0.665,0.57357 1.03125,0.8125 z M 627.3125,70.125 c 0.22211,0 0.0146,0.419545 -0.0625,0.71875 -0.0785,-0.334959 -0.19391,-0.71875 0.0625,-0.71875 z M 546.625,95.34375 c 0.31535,0.05086 0.94235,0.882181 1.1875,0.71875 0.0509,-0.03396 0.12446,-0.124916 0.1875,-0.1875 -0.0734,0.584817 -0.18136,1.174696 0,1.71875 0.1054,0.316228 0.48305,0.483047 0.71875,0.71875 -0.16666,0.166666 -0.55209,-0.166667 -0.71875,0 -1.46303,1.463033 2.25531,-0.06515 -0.6875,1.40625 -0.42164,0.210819 -1.10417,-0.333333 -1.4375,0 -0.16667,0.166667 0.16666,0.55208 0,0.71875 -0.33334,0.33333 -1.07292,-0.33334 -1.40625,0 -0.16667,0.16666 0.16667,0.55209 0,0.71875 -0.0371,0.0371 -0.70603,-0.0841 -1.1875,-0.0312 -0.28259,-0.48702 -0.52961,-0.97202 -0.40625,-1.21875 0.21296,-0.425915 1.38079,-0.04283 1.59375,-0.46875 0.30117,-0.602338 -0.47619,-1.555059 0,-2.03125 0.2381,-0.238095 1.23066,1.113096 1.46875,0.875 1.34687,-1.34687 -1.66249,-1.5625 1.03125,-1.5625 0.23809,-0.238095 -0.70685,-1.105654 -0.46875,-1.34375 0.0298,-0.02976 0.08,-0.03852 0.125,-0.03125 z m 9.15625,3.625 c 0.0183,-0.01244 0.0823,0.06575 0.1875,0.09375 -0.0741,0.0106 -0.14583,0.01042 -0.1875,-0.03125 -0.016,-0.01603 0.008,-0.04301 0,-0.0625 z m 1.53125,0.75 c 0.36936,0.138586 0.20509,0.01299 0,0 z m -13.65625,2.09375 c 0.0339,0.006 0.0681,0.006 0.0937,0.0312 0.0833,0.0833 0.10417,0.19033 0.0937,0.3125 -0.0487,-0.10835 -0.12188,-0.22501 -0.1875,-0.34375 z m -44.75,2.5 c -0.0674,-0.0155 -0.17603,0.0102 -0.28125,0.0312 -0.21045,0.0421 -0.45664,0.125 -0.625,0.125 0.33672,0 1,0.33672 1,0 0,-0.0842 -0.0263,-0.14078 -0.0937,-0.15625 z m 52.78125,20.0625 c -0.0595,0.0145 -0.11458,0.0521 -0.15625,0.0937 -0.16667,0.16667 0.16667,0.55208 0,0.71875 -0.16667,0.16666 -0.47668,-0.10541 -0.6875,0 -0.29814,0.14907 -0.42061,0.56968 -0.71875,0.71875 -0.42164,0.21082 -1.07291,-0.33333 -1.40625,0 -0.16666,0.16667 0.16667,0.52083 0,0.6875 -0.16666,0.16667 -0.48305,0 -0.71875,0 l -0.6875,0 -0.71875,0 c -0.2357,0 -0.50794,-0.10541 -0.71875,0 -0.29815,0.14907 -0.38936,0.56967 -0.6875,0.71875 -0.77754,0.38876 -1.43096,-0.70058 -2.125,0.6875 -0.10541,0.21082 0,0.48305 0,0.71875 0,0.70711 -0.22361,1.45418 0,2.125 0.10541,0.31623 0.38936,0.56968 0.6875,0.71875 0.42164,0.21081 1.10417,-0.33334 1.4375,0 0.16667,0.16666 -0.16667,0.52084 0,0.6875 0.16667,0.16667 0.45179,0 0.6875,0 l 0.71875,1.40625 c 0.0745,0.2236 -0.16666,0.55209 0,0.71875 -0.2357,0 -0.50794,-0.10541 -0.71875,0 -2.02106,1.01053 0.6148,0.39572 -1.40625,1.40625 -0.42164,0.21082 -0.95904,-0.14907 -1.40625,0 -1.47554,0.49184 -2.05571,1.63315 -3.53125,2.125 -0.15526,0.0517 -2.73863,0.0526 -2.84375,0 -0.29815,-0.14907 -0.38936,-0.53843 -0.6875,-0.6875 -0.2152,-0.1076 -1.80655,0 -2.125,0 l -4.96875,0 c -0.2357,0 -0.52084,-0.16667 -0.6875,0 -0.16667,0.16667 0.16666,0.52083 0,0.6875 -0.0707,0.0707 -2.05429,0.0707 -2.125,0 -0.16667,-0.16667 0.1054,-0.47668 0,-0.6875 -1.47141,-2.94281 0.0568,0.74428 -1.40625,-0.71875 -0.33454,-0.33453 -0.35824,-0.89786 -0.625,-1.28125 0.39179,0.78235 0.34278,1.93492 0.625,2.6875 0.37012,0.98698 0.77379,2.00048 1.40625,2.84375 0.8,1.06667 1.68184,2.10584 2.8125,2.8125 7.03788,4.39867 0.88683,-0.16272 3.53125,0.71875 0.5,0.16667 0.9375,0.52083 1.4375,0.6875 0.53806,0.17935 2.27244,-0.10802 2.8125,0 1.45233,0.48411 1.8442,0.62735 2.1875,0.75 -0.75077,-0.30759 -1.52085,-0.74792 2.0625,-0.0312 0.51681,0.10336 0.89494,0.59092 1.40625,0.71875 0.66892,0.16723 1.78519,0.0252 2.59375,0 l 0.875,4.28125 c -0.81832,0.46613 -1.9025,0.2325 -2.75,0.65625 -0.0363,0.0181 -0.0635,2.06154 0,2.125 0.37268,0.37267 1.03357,0.34608 1.40625,0.71875 1.08991,1.08991 1.99769,2.23609 2.8125,3.46875 -0.3349,-1.0062 -0.50374,-1.96165 -0.59375,-2.90625 l 0.59375,2.90625 c -0.95683,0.0273 -2.48428,0.2266 -2.8125,0.0625 -0.14007,-0.07 -0.38396,-0.2247 -0.5625,-0.375 0.41666,0.19104 0.83308,0.375 1.28125,0.375 0.52704,0 -0.91045,-0.71875 -1.4375,-0.71875 -0.16666,0 -0.0562,0.15436 0.125,0.3125 -0.26412,-0.12098 -0.53698,-0.24362 -0.8125,-0.3125 -0.48122,-0.1203 -1.7383,0.19335 -2.125,0 -0.29814,-0.14907 -0.42061,-0.53842 -0.71875,-0.6875 -0.14505,-0.0725 -2.02528,-0.0997 -2.125,0 -0.16667,0.16667 0,0.4518 0,0.6875 0,0.17149 -0.0227,2.10226 0,2.125 0.16667,0.16667 0.50793,-0.10541 0.71875,0 2.02259,1.0113 0.35477,0.65713 0.0625,0.65625 0.12376,0.0709 0.65399,0.2805 2.0625,0.75 0.44721,0.14908 1.07292,-0.33333 1.40625,0 0.49827,0.49827 0.12188,0.71252 -0.1875,0.78125 0.25142,-0.0242 0.66477,-0.0625 1.59375,-0.0625 0.39468,0 3.23881,0.1079 3.5625,0 0.31623,-0.10541 0.37127,-0.61334 0.6875,-0.71875 0.31094,-0.10365 0.66668,-0.0655 1,-0.0312 0.14509,0.2521 0.29183,0.49508 0.4375,0.75 0.26149,0.45761 0.55967,0.89494 0.6875,1.40625 0.0572,0.22867 0.0329,0.47826 0,0.71875 0.16666,-0.16667 0.55209,0.16667 0.71875,0 0.35356,-0.35355 -0.35355,-1.77145 0,-2.125 0.16667,-0.16667 0.52083,0.16667 0.6875,0 0.0362,-0.0362 0.0559,-0.31878 0.0625,-0.65625 0.95092,0.0169 1.86481,0.003 2.0625,-0.0625 0.23821,0.0596 0.81665,0.0678 1.4375,0.0625 l 0,0.65625 0,2.8125 0,0.71875 c 0,0.2357 -0.10541,0.50793 0,0.71875 0.14907,0.29814 0.53843,0.38936 0.6875,0.6875 0.10541,0.21082 0,0.48304 0,0.71875 l 0,0.71875 3.53125,2.09375 c 2.01934,0.75001 3.66946,0.71875 5.65625,0.71875 0.2357,0 0.52263,0.13074 0.71875,0 0.5547,-0.3698 0.80996,-1.10811 1.40625,-1.40625 1.34912,-0.67457 1.36628,0.79868 2.125,-0.71875 0.10541,-0.21082 -0.10541,-0.47668 0,-0.6875 0.14907,-0.29814 0.56967,-0.42061 0.71875,-0.71875 0.10541,-0.21082 -0.10541,-0.50793 0,-0.71875 0.14907,-0.29815 0.40848,-0.48302 0.6875,-0.6875 0.90232,0.36093 1.8908,0.49691 2.84375,0.6875 0.23112,0.0462 0.47668,-0.10541 0.6875,0 0.29814,0.14907 0.42061,0.56967 0.71875,0.71875 0.3836,0.19179 2.65027,-0.19348 2.84375,0 0.16667,0.16666 -0.16667,0.55209 0,0.71875 0.16667,0.16667 0.52083,-0.16666 0.6875,0 0.16666,0.16667 -0.16667,0.52083 0,0.6875 0.16666,0.16667 0.55209,-0.16667 0.71875,0 0.54682,0.54682 -1.15211,1.97703 -0.71875,2.84375 0.14907,0.29814 0.61334,0.37128 0.71875,0.6875 0.22361,0.67082 0,1.4179 0,2.125 0,1.17851 0.43769,2.43703 0,3.53125 -0.0701,0.17516 -0.1556,0.33942 -0.25,0.5 -0.0299,0.0547 -0.0644,0.10283 -0.0937,0.15625 -0.67463,1.04575 -1.80129,1.82693 -2.5,2.875 -0.13075,0.19612 0.10541,0.50793 0,0.71875 -0.14907,0.29814 -0.53843,0.42061 -0.6875,0.71875 -0.1076,0.2152 0,1.80654 0,2.125 l 2.28125,-4.5625 c -0.33422,0.9668 -0.31173,1.86053 0.53125,3.125 0.3698,0.5547 1.10811,0.84121 1.40625,1.4375 0.10541,0.21081 -0.21082,0.58209 0,0.6875 0.63246,0.31623 1.41789,0 2.125,0 0.16803,0 2.68526,0.0792 2.84375,0 0.29814,-0.14907 0.42061,-0.53843 0.71875,-0.6875 0.21082,-0.10541 0.4518,0 0.6875,0 1.05247,0 0.90623,0.0938 2.125,-0.71875 1.37955,-0.9197 0.36111,-0.33333 0.71875,-1.40625 0.16667,-0.5 0.49176,-0.94815 0.6875,-1.4375 l 0,1.4375 c 0,0.23571 -0.16667,0.52083 0,0.6875 0.16666,0.16667 0.55209,-0.16667 0.71875,0 0.16667,0.16667 -0.16666,0.55208 0,0.71875 0.16667,0.16666 0.55208,-0.16667 0.71875,0 0.33333,0.33333 -0.21082,0.98461 0,1.40625 0.14907,0.29814 0.45179,0.48305 0.6875,0.71875 0.2357,0.2357 0.42061,0.56967 0.71875,0.71875 1.04044,0.52022 0.79345,0.0902 0.59375,-0.15625 0.10467,0.11895 0.28581,0.31706 0.8125,0.84375 0.42163,0.21082 0.98461,-0.21082 1.40625,0 0.983,0.4915 0.8181,0.67082 0.75,0.71875 0.0738,-0.002 0.27293,0 0.6875,0 0.23571,0 0.45884,0.0572 0.6875,0 0.7231,-0.18078 1.4019,-0.53797 2.125,-0.71875 0.22867,-0.0572 0.50793,0.10541 0.71875,0 0.29814,-0.14907 0.38936,-0.53843 0.6875,-0.6875 0.21082,-0.10541 0.55208,0.16666 0.71875,0 0.81252,-0.81252 0.71875,-1.25422 0.71875,-2.125 0,-0.23571 0.16666,-0.55209 0,-0.71875 -0.16667,-0.16667 -0.55208,0.16666 -0.71875,0 -0.16667,-0.16667 0.10541,-0.50793 0,-0.71875 -0.58942,-1.17885 -1.40625,-0.32318 -1.40625,-2.125 0,-0.36976 -0.093,-2.62657 0,-2.8125 0.14907,-0.29814 0.58209,-0.40252 0.6875,-0.71875 0.14908,-0.44722 0,-0.93484 0,-1.40625 0,-0.2357 -0.10541,-0.50793 0,-0.71875 0.14908,-0.29815 0.71875,-0.35417 0.71875,-0.6875 0,-0.2357 -0.48304,0 -0.71875,0 -0.46451,0 -2.64623,0.0831 -2.8125,0 -0.21082,-0.10541 0.16666,-0.55208 0,-0.71875 -0.37268,-0.37267 -1.03357,-0.31483 -1.40625,-0.6875 -0.37267,-0.37268 -0.48305,-0.96609 -0.71875,-1.4375 -0.23571,-0.4714 -0.55208,-0.90625 -0.71875,-1.40625 -0.14907,-0.44721 0,-0.93485 0,-1.40625 l 0,-6.375 c -1.17851,0.94281 -2.2755,2.00658 -3.53125,2.84375 -0.19612,0.13075 -0.4518,0 -0.6875,0 -0.2357,0 -0.61334,0.21082 -0.71875,0 0.0107,-0.13442 0.12203,-0.24581 -0.0312,-0.5625 0.0553,-0.29814 0.15874,-0.62002 0.0312,-0.875 -0.10541,-0.21082 -0.55209,0.16667 -0.71875,0 -0.33334,-0.33333 0.21081,-0.98461 0,-1.40625 -0.14908,-0.29814 -0.53843,-0.38936 -0.6875,-0.6875 -0.28284,-0.56569 0.28284,-1.55932 0,-2.125 -0.14907,-0.29814 -0.53385,-0.4414 -0.71875,-0.71875 -0.29235,-0.43853 -0.4264,-0.96772 -0.71875,-1.40625 -0.1849,-0.27735 -0.53843,-0.42061 -0.6875,-0.71875 -0.10541,-0.21082 0.10541,-0.47668 0,-0.6875 -0.14907,-0.29814 -0.56968,-0.42061 -0.71875,-0.71875 -0.10541,-0.21082 0,-0.48305 0,-0.71875 l 0,-0.6875 c 0,-0.83524 0.14016,-3.82951 0,-4.25 -0.10541,-0.31622 -0.53842,-0.42061 -0.6875,-0.71875 -0.21081,-0.42164 0.33334,-1.07291 0,-1.40625 -0.0524,-0.0524 -0.36189,-0.0771 -0.71875,-0.0625 l 0,5.71875 c 0,0.71209 0.13035,3.85895 0,4.25 -0.10541,0.31623 -0.61334,0.37128 -0.71875,0.6875 -0.22361,0.67082 0,1.4179 0,2.125 l 0,1.46875 c -0.25916,0.034 -0.49377,0.0656 -0.6875,-0.0312 -0.29814,-0.14907 -0.42061,-0.56968 -0.71875,-0.71875 -0.42164,-0.21082 -1.07291,0.33333 -1.40625,0 -0.16666,-0.16667 0.16667,-0.55208 0,-0.71875 -0.16666,-0.16666 -0.48305,0 -0.71875,0 l -1.40625,0 -2.125,0 c -0.002,-0.29666 0.006,-0.67553 0,-0.6875 -1.13771,-2.27542 -1.02221,-1.93298 -2.84375,-2.84375 -0.47141,-0.2357 -1.03357,-0.31482 -1.40625,-0.6875 -0.16666,-0.16666 0.16667,-0.55209 0,-0.71875 -0.0453,-0.0453 -2.68079,-1.31844 -2.8125,-1.40625 -0.27735,-0.1849 -0.42061,-0.56968 -0.71875,-0.71875 -0.21082,-0.10541 -0.50793,0.10541 -0.71875,0 -2.94281,-1.47141 0.77552,0.0568 -0.6875,-1.40625 -0.35356,-0.35355 -1.77145,0.35356 -2.125,0 0.51987,-0.0866 0.4264,-0.96772 0.71875,-1.40625 0.21082,-0.10541 0.52083,0.16667 0.6875,0 0.17932,-0.17932 0.28405,-0.41426 0.375,-0.65625 0.12886,0.0139 0.26389,0.0174 0.34375,-0.0625 0.16666,-0.16666 0.16666,-0.55209 0,-0.71875 0.11045,-0.16569 1.22725,-0.8665 0.6875,-1.40625 -0.15824,-0.15824 -0.31223,-0.25153 -0.46875,-0.34375 -0.1826,-0.72276 -1.39311,-0.23289 1.1875,-1.78125 0.63914,-0.38348 1.43295,-0.44194 2.125,-0.71875 1.29057,-0.51623 1.93626,-0.92542 2.8125,-2.09375 0.14712,-0.19616 1.01633,-1.52985 0.71875,-2.125 -0.14907,-0.29814 -0.42061,-0.56968 -0.71875,-0.71875 -0.15525,-0.0776 -4.1663,-0.0175 -4.21875,0 -0.31623,0.10541 -0.48305,0.48305 -0.71875,0.71875 -0.2357,0.23571 -0.42061,0.53843 -0.71875,0.6875 -0.21082,0.10541 -0.52084,-0.16667 -0.6875,0 -0.16667,0.16667 0.16666,0.55208 0,0.71875 -1.46303,1.46303 0.0652,-2.22405 -1.40625,0.71875 -0.10541,0.21082 0.10541,0.47668 0,0.6875 -0.14907,0.29814 -0.56968,0.42061 -0.71875,0.71875 -0.16545,0.3309 0.0798,2.03428 0.0312,2.625 -0.24418,-0.0998 -0.50194,-0.25194 -0.75,-0.5 -0.60093,-0.60093 -0.75338,-1.58095 -1.40625,-2.125 L 560.75,142.875 c 0,-0.2357 0.16666,-0.55209 0,-0.71875 -0.0619,-0.0619 -0.15908,-0.0761 -0.25,-0.0625 0.20551,-0.66117 0.43085,-1.31494 0.65625,-1.96875 -0.80916,0.31262 -1.70267,0.34881 -2.53125,0.625 -0.0307,-0.0307 -0.0637,-0.0623 -0.0937,-0.0937 -0.43158,-0.45187 -0.82516,-0.99802 -1.34375,-1.34375 -0.1428,-0.28561 -2.7913,-2.7913 -2.8125,-2.8125 -0.23571,-0.2357 -0.56968,-0.42061 -0.71875,-0.71875 -0.12786,-0.25572 0,-3.03943 0,-3.53125 0,-0.2357 -0.16667,-0.52084 0,-0.6875 0.16667,-0.16667 0.55208,0.16666 0.71875,0 0.16666,-0.16667 0,-0.48305 0,-0.71875 0,-0.36976 0.093,-2.65782 0,-2.84375 -0.14907,-0.29814 -0.56968,-0.38936 -0.71875,-0.6875 -0.10541,-0.21082 0,-0.48305 0,-0.71875 0,-1.3942 0.34418,-1.54152 -1.40625,-2.125 -0.11181,-0.0373 -0.24701,-0.0822 -0.375,-0.0937 -0.064,-0.006 -0.12798,-0.0145 -0.1875,0 z m 9.46875,15.75 c 0.0912,-0.0352 0.19322,-0.0497 0.28125,-0.0937 0.21082,-0.10541 0.0875,-0.93759 0,-0.71875 -0.10562,0.26404 -0.18859,0.54374 -0.28125,0.8125 z m 23.625,7.625 0,-4.1875 c 0,-0.48827 0.10749,-2.59751 0,-2.8125 -0.14907,-0.29814 -0.56968,-0.42061 -0.71875,-0.71875 -0.10541,-0.21082 0.16667,-0.55208 0,-0.71875 -0.16667,-0.16667 -0.52083,-0.16667 -0.6875,0 -0.16666,0.16667 0.10541,0.50793 0,0.71875 -0.14907,0.29814 -0.61334,0.40253 -0.71875,0.71875 -0.14907,0.44722 0,0.93484 0,1.40625 l 0,4.25 0,0.6875 c 0,0.2357 -0.16667,0.55209 0,0.71875 0.11773,0.11773 1.3235,-0.0297 2.125,-0.0625 z m -29,19.875 c 0,0.2357 -0.2357,0.6875 0,0.6875 0.2357,0 0,-0.4518 0,-0.6875 z m -5.65625,-4.25 c -0.16667,0.16667 0,0.4518 0,0.6875 -0.0745,-0.22361 -0.0329,-0.44701 0,-0.6875 z m 0,0.6875 0,3.5625 c 0,0.25968 0.0284,2.784 0,2.8125 -0.16667,0.16667 -0.52083,-0.16667 -0.6875,0 -0.16667,0.16667 0.10541,0.50793 0,0.71875 -0.14907,0.29814 -0.48305,0.4518 -0.71875,0.6875 -0.2357,0.23571 -0.4414,0.53385 -0.71875,0.71875 -0.43853,0.29235 -1.03357,0.34607 -1.40625,0.71875 -0.16666,0.16666 -0.16666,0.52084 0,0.6875 0.16667,0.16667 0.49514,-0.0745 0.71875,0 0.5,0.16667 0.90625,0.55208 1.40625,0.71875 0.22361,0.0745 0.50793,-0.10541 0.71875,0 0.29814,0.14907 0.37127,0.58209 0.6875,0.6875 0.10541,-0.31623 0.61334,-0.37127 0.71875,-0.6875 0.14907,-0.44721 0,-0.93485 0,-1.40625 l 0,-4.25 c 0,-0.5012 0.0914,-4.06718 0,-4.25 -0.14907,-0.29815 -0.61334,-0.40252 -0.71875,-0.71875 z m 0,11.3125 c -0.25438,0.76313 0.30035,3.64929 0,4.25 -0.10541,0.21082 -0.52083,-0.16667 -0.6875,0 -0.0707,0.0707 -0.0707,2.05429 0,2.125 0.16667,0.16666 0.52083,-0.16667 0.6875,0 0.16666,0.16666 -0.10541,0.50794 0,0.71875 0.14907,0.29815 0.56968,0.38936 0.71875,0.6875 0.10541,0.21082 -0.16666,0.55208 0,0.71875 0.16667,0.16666 0.52083,-0.16667 0.6875,0 0.7694,0.7694 -1.24313,0.91578 0.71875,1.40625 0.68599,0.1715 1.41789,0 2.125,0 0.4714,0 0.95904,0.14907 1.40625,0 1.24372,-0.41457 0.43127,-1.26256 0.71875,-2.125 0.10541,-0.31623 0.58209,-0.37127 0.6875,-0.6875 0.14907,-0.44721 0,-0.96609 0,-1.4375 0,-0.4714 0.14907,-0.95904 0,-1.40625 -0.16666,-0.5 -0.24897,-1.11389 -0.6875,-1.40625 -0.39224,-0.26148 -1.01401,0.26149 -1.40625,0 -2.58373,-1.72248 0.73489,-1.0388 -1.4375,-2.125 -0.21082,-0.10541 -0.46389,0.0745 -0.6875,0 -0.5,-0.16666 -0.92619,-0.59093 -1.4375,-0.71875 -0.45733,-0.11434 -0.95904,0.14907 -1.40625,0 z m -2.96875,-41.03125 c 0.0622,-0.005 0.11458,-0.0104 0.15625,0.0312 l -0.375,0 c 0.069,-0.0208 0.15658,-0.026 0.21875,-0.0312 z m -24.59375,0.0312 c -0.2357,0 -0.16667,0.55208 0,0.71875 0.33333,0.33333 1.07292,-0.33333 1.40625,0 -0.25947,-0.42794 -0.66868,-0.71875 -1.40625,-0.71875 z m 24.75,10.59375 c 0.51473,2.05892 -0.33061,2.3093 -0.71875,4.25 0.10114,0.20227 0.0349,0.46933 -0.0312,0.71875 -0.0116,-0.23685 -0.0149,-0.48763 0.0312,-0.71875 -0.14907,-0.29815 -0.56968,-0.38936 -0.71875,-0.6875 -0.21082,-0.42164 0.21081,-1.01587 0,-1.4375 -0.14908,-0.29815 -0.53843,-0.38936 -0.6875,-0.6875 0.2357,0 0.52083,0.16667 0.6875,0 0.16666,-0.16667 -0.16667,-0.55208 0,-0.71875 0.16666,-0.16666 0.50793,0.10541 0.71875,0 0.29814,-0.14907 0.42061,-0.56968 0.71875,-0.71875 z M 551.71875,145 c 4.24403,1.06188 -0.12168,0.0346 1.25,1.40625 0.16667,0.16667 0.46389,-0.0745 0.6875,0 0.5,0.16667 0.9375,0.52083 1.4375,0.6875 0.44722,0.89442 1.64654,1.23057 2.09375,2.125 0.10541,0.21081 -0.16666,0.55209 0,0.71875 0.0833,0.0833 0.21614,0.0602 0.34375,0.0312 -0.34096,0.69776 -0.68386,1.39897 -1.03125,2.09375 -0.23571,0.47141 -0.55208,0.90625 -0.71875,1.40625 -0.0745,0.2236 0,0.48305 0,0.71875 l 0,0.6875 c -0.005,0.005 0.004,0.0237 0,0.0312 -0.32927,0.01 -0.76626,0.0177 -0.90625,0.0312 0.31193,-0.0649 0.72655,-0.2422 0.21875,-0.75 -0.33333,-0.33333 -0.99029,0.14907 -1.4375,0 -0.5,-0.16666 -0.90625,-0.55209 -1.40625,-0.71875 -0.22361,-0.0745 -0.49514,0.0745 -0.71875,0 -0.5,-0.16667 -0.90625,-0.55208 -1.40625,-0.71875 -0.22361,-0.0745 -0.52083,0.16667 -0.6875,0 -0.16667,-0.16667 0.10541,-0.47668 0,-0.6875 -1.47141,-2.94281 0.0255,0.74428 -1.4375,-0.71875 -0.16667,-0.16667 0.16666,-0.52083 0,-0.6875 -0.33334,-0.33333 -1.07291,0.33333 -1.40625,0 0,-0.21524 -0.0191,-0.4398 -0.0312,-0.65625 1.21162,-1.19663 3.68652,-3.81689 4.28125,-4.3125 0.32268,-0.2689 0.60059,-0.49719 0.875,-0.6875 z m 6.90625,2.125 c -0.005,1.33714 -0.2441,0.2217 0.6875,0.6875 0.29815,0.14907 0.48305,0.48305 0.71875,0.71875 0.2357,0.2357 0.6379,0.36412 0.71875,0.6875 0.13858,0.55429 -0.0721,1.14857 -0.0625,1.71875 -0.64063,-0.26633 -1.50605,-0.63566 -2.78125,-1 -0.10413,-0.0298 -0.22554,0.003 -0.34375,0.0312 0.11961,-0.24516 0.23627,-0.49921 0.34375,-0.75 0.29361,-0.68509 0.5078,-1.37737 0.71875,-2.09375 z m 2.90625,5.03125 c 0.25179,0.16855 0.49865,0.34105 0.625,0.59375 0.10541,0.21082 0,0.48304 0,0.71875 l 0,0.5625 c -0.93429,0.53914 -2.54394,0.66309 -2.84375,1.5625 -0.0745,0.22361 -0.0137,0.4738 0.0312,0.71875 -0.0112,-2e-5 -0.02,0 -0.0312,0 -0.2357,0 -0.47668,-0.10541 -0.6875,0 -0.14907,0.0745 -0.2923,0.15798 -0.40625,0.28125 l 3.3125,-4.4375 z m -5.75,3.8125 0,1.75 c -0.6142,-0.0464 -1.22104,-0.0926 -1.40625,0 -0.29815,0.14907 -0.42061,0.53843 -0.71875,0.6875 l -0.375,0 c -0.12959,-0.034 -0.22916,-0.0833 -0.3125,0 l -2.125,0 c -0.16386,-0.22839 -0.22969,-0.45781 0,-0.6875 0.33334,-0.33334 0.98461,0.21082 1.40625,0 0.29814,-0.14907 0.42061,-0.56968 0.71875,-0.71875 0.21082,-0.10541 0.4518,0 0.6875,0 0.4714,-0.2357 0.99897,-0.39514 1.4375,-0.6875 0.47719,0.14762 0.64041,-0.0478 0.6875,-0.34375 z"
           transform="translate(0,796.36218)"
           id="path3926" />
      </g>
    </g>
  </g>
</svg>
